<svg width="62" height="62" viewBox="0 0 62 62" fill="none" xmlns="http://www.w3.org/2000/svg">
<path d="M62.0083 0H0.00830078V62H62.0083V0Z" fill="#B92770"/>
<path d="M43.3562 52.7002C42.8449 52.4832 42.3904 52.151 42.0282 51.73C41.9187 51.5811 41.7651 51.4706 41.5891 51.4141C41.4132 51.3575 41.2239 51.3579 41.0482 51.415C40.5382 51.563 40.0322 51.7242 39.5222 51.8652C39.0122 52.0062 39.0132 51.9978 38.7362 51.4238L39.3962 51.2139C39.8962 51.0499 40.3962 50.8499 40.9122 50.7349C41.4702 50.6089 41.5492 50.2509 41.5882 49.7769C41.6122 48.9914 41.7195 48.2111 41.9082 47.4482C42.1125 46.8068 42.4437 46.2126 42.8821 45.7017C43.3205 45.1908 43.8572 44.7734 44.4602 44.4741C44.6072 44.4142 44.7578 44.363 44.9112 44.3218C44.5372 46.1218 44.5532 47.905 43.5572 49.5C44.3122 48.9 45.1032 48.344 45.8002 47.689C45.8874 47.5432 45.9415 47.3799 45.9588 47.2109C45.9761 47.042 45.9561 46.8713 45.9002 46.7109C45.5515 45.6656 45.4758 44.5486 45.6803 43.4658C45.8847 42.383 46.3624 41.3702 47.0682 40.5239C47.2252 40.3538 47.3921 40.1932 47.5682 40.043C47.7112 41.943 48.1872 43.667 47.7682 45.436L47.8862 45.499C48.3537 44.8331 48.7844 44.1423 49.1762 43.4292C49.206 43.2667 49.2025 43.0995 49.1659 42.9385C49.1293 42.7774 49.0603 42.6258 48.9632 42.4922C48.3739 41.5423 48.0289 40.4609 47.9591 39.3452C47.8893 38.2295 48.0969 37.1141 48.5632 36.0981C48.6275 35.9351 48.7281 35.7885 48.8572 35.6699C49.5732 37.3639 50.4672 38.983 50.4642 40.918C50.6842 40.283 50.8552 39.6251 51.1352 39.0181C51.3608 38.5939 51.418 38.1003 51.2955 37.6357C51.1729 37.1712 50.8797 36.77 50.4742 36.5122C49.4528 35.5246 48.8545 34.1787 48.8052 32.7588C48.7638 32.0261 48.7594 31.2922 48.7922 30.5591L49.0532 30.4922C50.1282 31.9162 51.4102 33.2102 52.0052 34.9922C52.0482 34.0922 52.1052 33.1968 52.1252 32.2988C52.1239 32.1015 52.0619 31.9095 51.9478 31.7485C51.8337 31.5876 51.6729 31.4655 51.4872 31.3989C49.1602 30.2899 48.4432 28.2589 48.2292 25.9409C48.2429 25.8195 48.2694 25.6999 48.3082 25.584C49.6032 26.693 51.0762 27.4892 51.8282 29.0352L51.9712 28.9868C51.7862 28.0468 51.6262 27.0999 51.3922 26.1709C51.3318 26.062 51.2469 25.9687 51.1441 25.8984C51.0413 25.8281 50.9236 25.7829 50.8002 25.7661C48.7442 25.5851 47.6822 24.2512 46.8882 22.5942C46.7063 22.2241 46.5645 21.8354 46.4652 21.4351C47.941 21.8238 49.3357 22.4723 50.5842 23.3501C50.2804 22.5726 49.9332 21.8128 49.5442 21.0742C49.4272 20.8742 48.9022 20.787 48.5922 20.833C47.9801 20.9258 47.3548 20.8731 46.7669 20.6792C46.179 20.4853 45.645 20.1555 45.2082 19.7168C44.741 19.2573 44.342 18.7336 44.0232 18.1611C44.2232 18.1611 44.4232 18.1611 44.6292 18.1611C45.8906 18.0547 47.1587 18.2649 48.3182 18.7729C47.9376 18.1877 47.5229 17.6253 47.0762 17.0889C46.9412 16.9429 46.4702 16.9629 46.2242 17.0659C45.3909 17.3702 44.4811 17.3945 43.6329 17.1348C42.7846 16.8751 42.0443 16.3456 41.5242 15.627C41.4994 15.5837 41.4806 15.5371 41.4682 15.4888C41.9732 15.0408 44.2042 14.8892 45.3822 15.2202C45.2029 14.9031 44.957 14.6286 44.6615 14.4155C44.3659 14.2025 44.0277 14.0557 43.6702 13.9858C42.9722 13.8596 42.3157 13.5647 41.7579 13.1265C41.2001 12.6883 40.7581 12.1204 40.4702 11.4722C40.2773 11.054 40.1071 10.6255 39.9602 10.189C40.0542 10.135 40.0882 10.097 40.1092 10.104C41.4184 10.363 42.6434 10.9415 43.6752 11.7881C43.9256 12.0046 44.1286 12.2706 44.2712 12.5693C44.4139 12.8681 44.4932 13.193 44.5042 13.5239C44.5116 13.6705 44.5724 13.8093 44.6752 13.9141C45.2752 14.4941 45.8862 15.0568 46.4852 15.6138C45.6699 13.9799 45.4317 12.1185 45.8092 10.332L45.9712 10.2471C46.3352 10.6561 46.7292 11.0471 47.0622 11.4751C47.9387 12.54 48.4343 13.8673 48.4702 15.2461C48.4634 15.6973 48.3514 16.1407 48.1432 16.541C48.0173 16.749 47.9575 16.9902 47.9718 17.2329C47.9861 17.4756 48.0738 17.7081 48.2232 17.8999C48.6462 18.5099 49.0472 19.1339 49.5032 19.7559C49.0621 17.9794 49.3123 16.1019 50.2032 14.5029C50.3132 14.6029 50.4102 14.6471 50.4562 14.7241C51.3988 16.3356 51.8116 18.2024 51.6362 20.061C51.5465 20.5562 51.3356 21.0214 51.0222 21.415C50.9054 21.5582 50.8249 21.7273 50.7875 21.9082C50.75 22.0891 50.7568 22.2764 50.8072 22.4541C51.0382 23.1891 51.3352 23.9048 51.6372 24.6318C51.5555 23.6952 51.6793 22.7525 51.9998 21.8687C52.3204 20.9848 52.83 20.1816 53.4932 19.5151C53.6559 19.9353 53.7758 20.3707 53.8512 20.8149C53.9426 22.0176 53.9676 23.2247 53.9262 24.4302C53.8928 24.8546 53.7745 25.2681 53.5783 25.646C53.3821 26.0239 53.1121 26.3583 52.7842 26.6299C52.5948 26.7988 52.4546 27.0158 52.3784 27.2578C52.3022 27.4999 52.2928 27.7579 52.3512 28.0049C52.4512 28.7049 52.5042 29.4052 52.6072 30.1372C52.7767 29.1941 53.137 28.2955 53.6661 27.4966C54.1952 26.6977 54.882 26.0153 55.6842 25.4912C55.7414 25.6944 55.7832 25.9013 55.8092 26.1108C55.8832 27.7689 55.5241 29.4179 54.7672 30.895C54.6231 31.2236 54.4104 31.5176 54.1434 31.7573C53.8765 31.9971 53.5614 32.1771 53.2192 32.2852C52.7842 32.4112 52.7412 32.7849 52.7092 33.1289C52.6192 34.0659 52.5602 35.0061 52.4912 35.9351C52.7772 35.5151 53.0572 35.0568 53.3842 34.6348C54.0947 33.7095 55.0531 33.0052 56.1482 32.603C56.3117 32.5615 56.4795 32.5394 56.6482 32.5371V33.1431C56.1802 34.1981 55.7552 35.2738 55.2272 36.2998C54.9715 36.7811 54.6097 37.1982 54.1692 37.519C53.7288 37.8265 53.2251 38.0316 52.6952 38.1191C52.5361 38.1237 52.3815 38.1728 52.2492 38.2612C52.1169 38.3497 52.0122 38.4739 51.9472 38.6191C51.5102 39.7251 51.1102 40.843 50.6412 42.106C51.235 41.3997 51.9857 40.8421 52.8333 40.4775C53.681 40.1129 54.6021 39.9513 55.5232 40.0059C55.4071 40.4436 55.2332 40.864 55.0062 41.2559C54.3798 42.094 53.6768 42.8723 52.9062 43.5801C52.5269 43.9083 52.0689 44.1322 51.577 44.23C51.085 44.3278 50.5761 44.2963 50.1002 44.1382C49.9488 44.1326 49.7981 44.1615 49.6596 44.2227C49.521 44.2838 49.3981 44.3756 49.3002 44.4912C48.7272 45.2012 48.2232 45.9658 47.6462 46.7788C48.4687 46.347 49.3829 46.1191 50.3118 46.1143C51.2407 46.1094 52.1572 46.3278 52.9842 46.751C52.7341 47.072 52.4593 47.3728 52.1622 47.6509C51.056 48.6454 49.6197 49.1936 48.1322 49.189C47.6078 49.0818 47.0978 48.914 46.6122 48.689C46.3592 48.614 46.0002 48.4891 45.8322 48.6011C45.0952 49.0791 44.4112 49.6329 43.6382 50.2139C44.5441 50.0745 45.47 50.1463 46.3436 50.4238C47.2172 50.7014 48.0148 51.1773 48.6742 51.814C48.4715 52.0057 48.2493 52.1754 48.0112 52.3208C47.119 52.7494 46.1448 52.9805 45.1552 52.998C44.5431 52.9998 43.935 52.8992 43.3562 52.7002ZM13.3332 52.355C13.0857 52.2144 12.8514 52.0519 12.6332 51.8691C13.2671 51.2189 14.043 50.7241 14.9001 50.4238C15.7571 50.1235 16.672 50.0259 17.5732 50.1382C17.2662 49.9312 16.9532 49.7381 16.6562 49.5161C16.3064 49.2171 15.9391 48.9393 15.5562 48.6841C15.3442 48.5631 14.9242 48.4909 14.7812 48.6089C14.4023 48.9088 13.9554 49.111 13.4798 49.1968C13.0043 49.2826 12.515 49.2496 12.0552 49.1011C10.6672 48.8382 9.41395 48.1008 8.51018 47.0151C8.45208 46.9248 8.399 46.831 8.35118 46.7349C9.167 46.3147 10.0726 46.0993 10.9903 46.1064C11.9079 46.1136 12.81 46.3431 13.6192 46.7759C13.0272 45.9469 12.4882 45.154 11.9042 44.395C11.8072 44.2545 11.6637 44.1528 11.499 44.1079C11.3343 44.0631 11.159 44.0779 11.0042 44.1499C10.6435 44.2694 10.2606 44.3069 9.88356 44.2593C9.50655 44.2117 9.14492 44.0804 8.82518 43.875C7.54893 43.1427 6.54655 42.014 5.9702 40.6602C5.89576 40.4465 5.83758 40.2273 5.79619 40.0049C6.70742 39.9542 7.61792 40.1163 8.45558 40.4785C9.29325 40.8408 10.035 41.3931 10.6222 42.0918C10.1612 40.8458 9.7692 39.7419 9.3402 38.6509C9.29211 38.4857 9.18682 38.3432 9.0432 38.2485C8.89957 38.1538 8.72697 38.1129 8.5562 38.1338C8.27226 38.1429 7.98969 38.0909 7.72774 37.981C7.46579 37.871 7.2306 37.7061 7.03819 37.4971C5.7764 36.2777 4.93904 34.6857 4.64919 32.9551C4.63712 32.795 4.63712 32.6342 4.64919 32.4741C5.54796 32.7361 6.38104 33.1853 7.09358 33.7925C7.80612 34.3997 8.38196 35.1512 8.78319 35.9971C8.71219 35.0521 8.64719 34.141 8.57619 33.23C8.58451 32.9955 8.51464 32.7651 8.37761 32.5747C8.24058 32.3843 8.04416 32.2448 7.8192 32.1782C7.35406 31.9713 6.96376 31.6261 6.70119 31.1899C5.76443 29.6139 5.33308 27.7886 5.4652 25.96C5.48969 25.8013 5.52646 25.6451 5.57518 25.4922C6.37836 26.013 7.06809 26.6905 7.60301 27.4844C8.13794 28.2783 8.50704 29.1718 8.68819 30.1118C8.77519 29.2718 8.8882 28.4328 8.9312 27.5908C8.94052 27.3055 8.8362 27.0282 8.64119 26.8198C7.24119 25.5628 7.13017 23.9329 7.24617 22.2559C7.33412 21.4559 7.46769 20.6617 7.6462 19.877C7.6622 19.788 7.7462 19.7111 7.8272 19.5771C8.4767 20.2424 8.97644 21.0388 9.29292 21.9131C9.60941 22.7873 9.73532 23.7191 9.66219 24.646C9.93819 23.878 10.2622 23.122 10.4622 22.335C10.5312 22.064 10.3272 21.7141 10.2142 21.4131C9.93813 20.9211 9.73214 20.3932 9.60219 19.8442C9.49688 18.153 9.86204 16.4656 10.6572 14.9692C10.7392 14.8112 10.8572 14.6692 11.0202 14.4292C11.9352 16.0504 12.2102 17.9552 11.7912 19.769C12.2722 19.04 12.7792 18.3272 13.2172 17.5752C13.2781 17.4565 13.3111 17.3253 13.3137 17.1919C13.3163 17.0585 13.2884 16.9262 13.2322 16.8052C12.975 16.377 12.8183 15.8959 12.7739 15.3984C12.7296 14.9009 12.7987 14.4 12.9762 13.9331C13.3842 12.4591 14.2383 11.1476 15.4212 10.1782C15.8373 12.0032 15.612 13.9159 14.7832 15.5942C15.3932 15.0262 16.0372 14.435 16.6702 13.833C16.7339 13.7563 16.7668 13.6587 16.7622 13.5591C16.7711 13.1767 16.8673 12.8013 17.0436 12.4619C17.2199 12.1225 17.4715 11.8282 17.7792 11.6011C18.8522 10.8635 20.0463 10.32 21.3072 9.99512C21.1234 10.9315 20.7042 11.8056 20.0892 12.5352C19.367 13.3395 18.3965 13.8788 17.3322 14.0679C16.7431 14.3091 16.2192 14.6861 15.8032 15.168C17.1902 14.73 18.4832 15.1239 19.9032 15.3599C19.59 15.8741 19.1656 16.3118 18.6612 16.6406C18.1568 16.9694 17.5851 17.1808 16.9882 17.2598C16.3964 17.3115 15.8001 17.2539 15.2292 17.0898C14.3842 16.8618 14.3072 16.8371 13.7862 17.5581C13.5502 17.8881 13.3252 18.2261 13.0952 18.5581C13.0492 18.6271 13.0112 18.701 12.8952 18.897C14.2952 18.065 15.7362 18.1521 17.1832 18.0601C17.1832 18.1681 17.2082 18.2469 17.1832 18.2949C16.8404 18.9752 16.3379 19.5623 15.7186 20.0059C15.0992 20.4494 14.3816 20.7362 13.6272 20.8418C13.2344 20.8614 12.8407 20.8406 12.4522 20.7798C12.2595 20.7392 12.0586 20.7725 11.8893 20.873C11.72 20.9736 11.5947 21.1346 11.5382 21.3232C11.2822 21.9972 10.9752 22.6518 10.7212 23.3428C11.8832 22.3068 13.3702 21.9689 14.7212 21.3569L14.8492 21.4668C14.6672 21.8868 14.5032 22.3171 14.2992 22.7251C13.9144 23.6759 13.2559 24.4908 12.4072 25.0669C11.9213 25.3429 11.3953 25.5411 10.8482 25.6548C10.0162 25.8288 9.87718 25.8911 9.71218 26.7031C9.55348 27.4651 9.43467 28.2345 9.35619 29.0088C10.1672 27.4908 11.6402 26.6848 12.8762 25.6318L13.0432 25.688C12.9822 26.188 12.9562 26.699 12.8542 27.188C12.6132 28.6392 11.8402 29.9485 10.6862 30.8608C10.4194 31.0447 10.1358 31.2029 9.83919 31.333C9.60845 31.4229 9.41331 31.5856 9.28337 31.7964C9.15344 32.0072 9.09579 32.2545 9.11919 32.501C9.17019 33.323 9.2082 34.1458 9.3062 34.9888C9.8292 33.2048 11.1242 31.9248 12.1712 30.4888L12.3522 30.5059C12.4032 30.9359 12.4912 31.3659 12.5002 31.7979C12.5595 33.1045 12.2292 34.3995 11.5512 35.5181C11.2076 36.0199 10.8128 36.4844 10.3732 36.9048C10.146 37.0783 9.98206 37.322 9.90654 37.5977C9.83103 37.8733 9.84812 38.1661 9.95519 38.4312C10.2722 39.2372 10.5012 40.0752 10.8182 40.8892C10.7902 38.9822 11.6782 37.3591 12.3182 35.6641L12.5002 35.6362C12.7066 36.0951 12.8853 36.5656 13.0352 37.0459C13.3058 37.9448 13.3801 38.8916 13.253 39.8218C13.1258 40.7519 12.8002 41.6437 12.2982 42.437C12.1262 42.6484 12.0348 42.914 12.0403 43.1865C12.0458 43.459 12.1478 43.7205 12.3282 43.9248C12.7122 44.4088 13.0282 44.9459 13.4282 45.4399C13.0652 43.6549 13.5462 41.9348 13.6662 40.0518C13.8317 40.1649 13.9866 40.2931 14.1292 40.4341C14.8557 41.2748 15.35 42.2904 15.5633 43.3809C15.7766 44.4713 15.7014 45.5984 15.3452 46.6509C15.2377 46.8727 15.2153 47.1261 15.2822 47.3633C15.3491 47.6005 15.5007 47.805 15.7082 47.938C16.3922 48.425 17.0412 48.96 17.7352 49.438C16.9505 47.8474 16.5077 46.11 16.4352 44.3379C17.0502 44.5307 17.6025 44.8841 18.0352 45.3618C18.5627 45.8648 18.9805 46.4719 19.2623 47.144C19.5442 47.8162 19.6841 48.5393 19.6732 49.2681C19.6582 50.4741 19.6732 50.4842 20.8332 50.8892C21.3752 51.0782 21.9332 51.2212 22.4992 51.3892C22.3822 51.8192 22.2092 52.0271 21.7572 51.8691C21.2572 51.6941 20.7412 51.5602 20.2342 51.4072C20.0547 51.3253 19.8509 51.3138 19.6635 51.3755C19.4761 51.4372 19.3189 51.5677 19.2232 51.7402C19.0297 52.0233 18.781 52.2638 18.4919 52.4482C18.2028 52.6326 17.8794 52.7569 17.5412 52.813C17.0739 52.9161 16.5968 52.9687 16.1182 52.9692C15.1563 52.9688 14.2061 52.759 13.3332 52.355ZM22.5542 42.835C22.3933 42.6567 22.2708 42.4473 22.194 42.2197C22.1173 41.9922 22.0881 41.7515 22.1082 41.5122V41.4512L22.4082 39.751C22.5675 38.8596 22.7269 37.9652 22.8862 37.0679C22.9272 36.8379 22.9702 36.6099 23.0142 36.3799C23.1082 35.8799 23.1962 35.4038 23.2652 34.9258C21.7422 33.4748 20.1802 32.0141 18.6652 30.6001L18.5762 30.5171C18.2798 30.3015 18.0589 29.9981 17.9445 29.6499C17.8302 29.3017 17.8283 28.9265 17.9392 28.5771C18.0701 28.2518 18.2937 27.9718 18.5822 27.7725C18.8708 27.5732 19.2116 27.4633 19.5622 27.4561L19.6282 27.4482C20.5542 27.3222 21.4962 27.19 22.4052 27.064C23.6132 26.895 24.8622 26.7212 26.0912 26.5562C26.7522 25.2442 27.4352 23.9188 28.0912 22.6348C28.3945 22.0441 28.6975 21.4535 29.0002 20.8628C29.1263 20.5343 29.3467 20.2504 29.6337 20.0469C29.9207 19.8433 30.2615 19.7296 30.6132 19.7192C30.9646 19.729 31.3054 19.8426 31.5923 20.0459C31.8792 20.2492 32.0994 20.5325 32.2252 20.8608L32.2322 20.8711C32.5409 21.4751 32.8505 22.0785 33.1612 22.6812C33.8142 23.9502 34.4892 25.2611 35.1432 26.5591C36.3262 26.7201 37.5262 26.8859 38.6882 27.0459C39.6795 27.1839 40.6702 27.3213 41.6602 27.458H41.6672C42.0208 27.4631 42.3649 27.5737 42.6554 27.7754C42.9459 27.977 43.1697 28.2603 43.2982 28.5898C43.4044 28.9347 43.4014 29.3043 43.2897 29.6475C43.1781 29.9906 42.9631 30.2906 42.6742 30.5068C42.0442 31.0942 41.4155 31.6829 40.7882 32.2729C39.8642 33.1409 38.9092 34.0389 37.9622 34.9189C38.3692 37.0699 38.7452 39.1959 39.0812 41.2349C39.1414 41.5703 39.1079 41.9158 38.9844 42.2334C38.8609 42.551 38.6522 42.8286 38.3812 43.0352C38.1113 43.19 37.8042 43.2674 37.4932 43.2598C37.1638 43.262 36.8381 43.1903 36.5402 43.0498C34.8172 42.2078 32.9312 41.2599 30.6122 40.0669C28.6072 41.0989 26.5622 42.1289 24.6522 43.0879C24.3586 43.2409 24.0332 43.3231 23.7022 43.3271C23.4875 43.3273 23.275 43.2838 23.0776 43.1992C22.8803 43.1146 22.7022 42.9905 22.5542 42.835ZM29.8802 23.5542C29.2152 24.8462 28.5292 26.181 27.8652 27.499C27.7366 27.7821 27.5361 28.0266 27.2836 28.208C27.0311 28.3894 26.7355 28.5016 26.4262 28.5332C25.1802 28.7002 23.9152 28.8779 22.6912 29.0479C21.9052 29.1559 21.0912 29.2699 20.2912 29.3799C21.7532 30.7469 23.2562 32.1551 24.7252 33.5571C24.9196 33.7379 25.0705 33.9605 25.1666 34.208C25.2628 34.4555 25.3016 34.7212 25.2802 34.9858C25.2012 35.5858 25.0902 36.1809 24.9802 36.7539C24.9392 36.9769 24.8962 37.1999 24.8572 37.4229C24.6982 38.3179 24.5392 39.214 24.3792 40.105L24.2072 41.0752C26.0072 40.1752 27.9072 39.2139 29.7672 38.2559C30.0315 38.1126 30.3266 38.0353 30.6272 38.0308C30.925 38.0346 31.2174 38.1109 31.4792 38.2529C33.6682 39.3799 35.4032 40.2532 37.0372 41.0532C36.7192 39.1532 36.3672 37.1829 35.9902 35.1909C35.9219 34.8841 35.9388 34.5645 36.039 34.2666C36.1393 33.9687 36.3192 33.704 36.5592 33.501C37.5192 32.61 38.4912 31.696 39.4312 30.814C39.9419 30.3346 40.4529 29.8556 40.9642 29.377L38.4242 29.0249C37.2292 28.8589 35.9952 28.6869 34.7812 28.5249C34.4884 28.4933 34.2088 28.3867 33.9693 28.2153C33.7298 28.044 33.5386 27.8137 33.4142 27.5469C32.7482 26.2289 32.0602 24.8902 31.3942 23.5972L30.6262 22.0972L29.8802 23.5542Z" fill="white"/>
</svg>
