<svg width="61" height="22" viewBox="0 0 61 22" fill="none" xmlns="http://www.w3.org/2000/svg">
<path d="M14.8109 21.4402C14.6656 21.4402 14.5217 21.4115 14.3874 21.3559C14.2532 21.3002 14.1312 21.2187 14.0285 21.1159C13.9258 21.0131 13.8443 20.891 13.7888 20.7567C13.7333 20.6224 13.7048 20.4785 13.7049 20.3332V13.6332C13.7048 13.4878 13.7333 13.3439 13.7888 13.2096C13.8443 13.0753 13.9258 12.9533 14.0285 12.8505C14.1312 12.7477 14.2532 12.6661 14.3874 12.6105C14.5217 12.5548 14.6656 12.5262 14.8109 12.5262H21.2479C21.4034 12.5249 21.5574 12.5572 21.6994 12.6206C21.8414 12.6841 21.9681 12.7774 22.0709 12.8942L23.2339 14.1862L24.4459 12.8792C24.5496 12.7673 24.6754 12.6783 24.8154 12.6177C24.9554 12.5571 25.1064 12.5263 25.2589 12.5272H30.3729C31.2386 12.4856 32.0974 12.6991 32.8429 13.1412C32.9329 12.9584 33.0719 12.8042 33.2444 12.6958C33.4169 12.5874 33.6162 12.529 33.8199 12.5272H37.5199C38.3601 12.4661 39.202 12.6192 39.9669 12.9722C40.0469 13.0192 40.1029 13.0822 40.1789 13.1362C40.2696 12.9543 40.4089 12.8011 40.5814 12.6937C40.7538 12.5862 40.9527 12.5285 41.1559 12.5272H46.4969C46.6929 12.5288 46.8849 12.5834 47.0525 12.6851C47.22 12.7869 47.357 12.932 47.4489 13.1052C48.0764 12.7033 48.8112 12.5017 49.5559 12.5272H52.7629C52.9903 12.5278 53.2118 12.5993 53.3966 12.7318C53.5814 12.8643 53.7203 13.0511 53.7939 13.2662C54.4508 12.7589 55.2645 12.4975 56.0939 12.5272H59.3009C59.4463 12.527 59.5903 12.5556 59.7247 12.6112C59.8591 12.6668 59.9811 12.7483 60.084 12.8511C60.1868 12.9539 60.2683 13.076 60.3239 13.2104C60.3795 13.3448 60.408 13.4888 60.4079 13.6342V15.0612C60.4078 15.2459 60.3614 15.4278 60.273 15.59C60.1847 15.7523 60.0571 15.8899 59.9019 15.9902C59.9141 16.0002 59.9258 16.0109 59.9369 16.0222C60.2124 16.3143 60.4254 16.6595 60.5629 17.0368C60.7005 17.414 60.7597 17.8153 60.7369 18.2162C60.7369 20.2312 59.3849 21.4362 57.1179 21.4362H54.0009C53.7841 21.4366 53.5719 21.373 53.3912 21.2532C53.2104 21.1335 53.0691 20.963 52.9849 20.7632C52.2726 21.2327 51.4314 21.468 50.5789 21.4362H47.4609C47.2938 21.4338 47.1295 21.3927 46.9809 21.3162C46.8318 21.3922 46.6673 21.4333 46.4999 21.4362H41.1559C40.9857 21.433 40.8186 21.3902 40.6679 21.3112C40.5174 21.3918 40.3496 21.4347 40.1789 21.4362H38.5739C38.2815 21.4362 38.001 21.3205 37.7936 21.1144C37.5862 20.9083 37.4688 20.6285 37.4669 20.3362V19.3612C37.4669 19.2662 37.4669 19.1232 37.4669 19.0032C37.3919 19.0032 37.2879 18.9932 37.1409 18.9932H36.5409V20.3362C36.5396 20.6287 36.4223 20.9088 36.2148 21.115C36.0073 21.3212 35.7264 21.4367 35.4339 21.4362H33.8209C33.5284 21.4367 33.2475 21.3212 33.04 21.115C32.8325 20.9088 32.7152 20.6287 32.7139 20.3362V18.6362C31.9682 19.0397 31.127 19.2333 30.2799 19.1962H29.3899V20.3392C29.3886 20.6317 29.2713 20.9118 29.0638 21.118C28.8563 21.3242 28.5754 21.4397 28.2829 21.4392H25.1719C25.0156 21.4396 24.861 21.4068 24.7184 21.3428C24.5758 21.2788 24.4485 21.1852 24.3449 21.0682L23.1849 19.7682L21.9629 21.0902C21.8598 21.2025 21.7344 21.2921 21.5948 21.3534C21.4552 21.4147 21.3044 21.4463 21.1519 21.4462L14.8109 21.4402ZM41.1559 20.3332H46.4969V18.9442L42.7479 18.9362V17.6062H46.4059V16.2382H42.7489V15.0192H46.4979V13.6352H41.1559V20.3332ZM37.1399 17.8882C37.7259 17.8882 38.0819 17.9442 38.3119 18.1832C38.6119 18.4952 38.5729 19.0932 38.5729 19.4952V20.3342H40.1789V19.0052C40.2278 18.5798 40.1346 18.1501 39.9139 17.7832C39.7135 17.5243 39.4427 17.3288 39.1339 17.2202C39.4799 17.0704 39.773 16.8201 39.9751 16.5019C40.1773 16.1837 40.2793 15.812 40.2679 15.4352C40.2877 15.1346 40.2207 14.8347 40.0747 14.5713C39.9288 14.3078 39.7102 14.0918 39.4449 13.9492C38.839 13.6858 38.177 13.5779 37.5189 13.6352H33.8189V20.3352H35.4279V17.8882H37.1399ZM25.1729 20.3302H28.2839V18.0832H30.2839C31.6839 18.0832 33.0719 17.7002 33.0719 15.8422C33.0719 13.9842 31.6429 13.6312 30.3719 13.6312H25.2559L23.2189 15.8312L21.2469 13.6312H14.8109V20.3312H21.1559L23.2049 18.1152L25.1729 20.3302ZM54.0029 20.3302H57.1209C58.7299 20.3382 59.6289 19.6652 59.6289 18.2212C59.6512 17.9642 59.62 17.7053 59.5374 17.461C59.4548 17.2166 59.3225 16.992 59.1489 16.8012C58.6297 16.3966 57.9765 16.204 57.3209 16.2622L56.4609 16.2372C56.2501 16.2475 56.0391 16.2218 55.8369 16.1612C55.7435 16.1227 55.6621 16.0597 55.6014 15.979C55.5407 15.8982 55.5028 15.8026 55.4918 15.7022C55.4807 15.6018 55.4969 15.5002 55.5386 15.4082C55.5804 15.3162 55.6461 15.2371 55.7289 15.1792C55.9255 15.073 56.1501 15.0304 56.3719 15.0572H59.3069V13.6262H56.0999C54.4199 13.6262 53.8109 14.6462 53.8109 15.6202C53.8109 17.7382 55.6859 17.6432 57.1819 17.6922C57.3835 17.671 57.586 17.7236 57.7519 17.8402C57.815 17.8949 57.8652 17.9629 57.8989 18.0393C57.9326 18.1157 57.949 18.1987 57.9469 18.2822C57.9473 18.3641 57.9309 18.4452 57.8987 18.5205C57.8666 18.5958 57.8193 18.6638 57.7599 18.7202C57.5716 18.8557 57.3391 18.915 57.1089 18.8862H54.0029V20.3302ZM47.4619 20.3302H50.5799C52.1889 20.3382 53.0859 19.6652 53.0859 18.2212C53.1086 17.9641 53.0776 17.705 52.9948 17.4606C52.912 17.2161 52.7792 16.9915 52.6049 16.8012C52.0863 16.3971 51.4338 16.2045 50.7789 16.2622L49.9189 16.2372C49.7081 16.2476 49.497 16.2219 49.2949 16.1612C49.201 16.1232 49.1191 16.0605 49.058 15.9797C48.9968 15.8989 48.9587 15.8031 48.9476 15.7024C48.9365 15.6017 48.9529 15.4999 48.9951 15.4078C49.0372 15.3157 49.1035 15.2367 49.1869 15.1792C49.3832 15.0732 49.6074 15.0306 49.8289 15.0572H52.7659V13.6262H49.5559C47.8759 13.6262 47.2669 14.6462 47.2669 15.6202C47.2669 17.7382 49.1429 17.6432 50.6379 17.6922C50.8395 17.6715 51.0418 17.724 51.2079 17.8402C51.271 17.8949 51.3212 17.9629 51.3549 18.0393C51.3886 18.1157 51.405 18.1987 51.4029 18.2822C51.4033 18.3641 51.3869 18.4452 51.3547 18.5205C51.3226 18.5958 51.2753 18.6638 51.2159 18.7202C51.0268 18.8556 50.7937 18.9149 50.5629 18.8862H47.4629L47.4619 20.3302ZM24.2319 16.9992L26.6909 14.3592V19.7292L24.2319 16.9992ZM16.4089 18.9422V17.6002H19.9219V16.2372H16.4099V15.0202H20.4209L22.1719 16.9692L20.3439 18.9372L16.4089 18.9422ZM28.2859 16.7242V15.0182H30.3729C30.9519 15.0182 31.3499 15.2532 31.3519 15.8422C31.3539 16.4312 30.9689 16.7242 30.3519 16.7242H28.2859ZM35.4309 16.5242V15.0242H37.4029C37.6637 15.0003 37.9263 15.0419 38.1669 15.1452C38.2735 15.2035 38.3614 15.2908 38.4205 15.3969C38.4796 15.5031 38.5075 15.6238 38.5009 15.7452C38.5071 15.8721 38.4798 15.9985 38.4217 16.1115C38.3636 16.2246 38.2767 16.3203 38.1699 16.3892C37.9218 16.5035 37.6479 16.5504 37.3759 16.5252L35.4309 16.5242ZM13.9559 9.91017C13.7418 9.91 13.5323 9.84776 13.3529 9.73097C13.1735 9.61418 13.0317 9.44787 12.9449 9.25217L12.7349 8.77717V8.80017C12.7349 8.94537 12.7063 9.08914 12.6507 9.22327C12.5951 9.3574 12.5136 9.47925 12.4109 9.58188C12.3082 9.6845 12.1862 9.76587 12.0521 9.82134C11.9179 9.87682 11.7741 9.9053 11.6289 9.90517H8.3689C8.14986 9.90627 7.93547 9.84194 7.75322 9.72044C7.57096 9.59894 7.42913 9.42578 7.3459 9.22317L7.0129 8.41417H5.1559L4.8179 9.22817C4.7341 9.42949 4.59266 9.60156 4.41135 9.72272C4.23005 9.84389 4.01697 9.90876 3.7989 9.90917H2.0619C1.87846 9.91055 1.69759 9.86603 1.53574 9.77967C1.3739 9.69331 1.23623 9.56784 1.13525 9.41469C1.03428 9.26153 0.973208 9.08556 0.957601 8.90278C0.941995 8.72 0.972348 8.53622 1.0459 8.36817L3.9109 1.67017C3.99645 1.47137 4.13836 1.30198 4.31909 1.18291C4.49982 1.06385 4.71147 1.00032 4.9279 1.00017H7.3049C7.52107 1.0003 7.73248 1.06372 7.91303 1.18261C8.09358 1.30149 8.23536 1.47064 8.3209 1.66917L8.9209 3.06917V2.10717C8.92077 1.96176 8.94931 1.81775 9.0049 1.68338C9.06048 1.54902 9.14202 1.42693 9.24484 1.32411C9.34766 1.22129 9.46974 1.13975 9.60411 1.08417C9.73848 1.02858 9.88249 1.00004 10.0279 1.00017H12.6409C12.8514 1.0015 13.0572 1.06265 13.2342 1.1765C13.4113 1.29035 13.5523 1.4522 13.6409 1.64317L14.6879 3.91717L15.6439 1.67617C15.7279 1.4768 15.8686 1.30646 16.0484 1.1863C16.2283 1.06613 16.4396 1.00141 16.6559 1.00017H19.3239C19.5393 1.00577 19.7482 1.0754 19.9239 1.20017C20.0995 1.07512 20.3084 1.00547 20.5239 1.00017H25.8699C26.0668 1.005 26.2585 1.06418 26.4239 1.17117C26.5893 1.06501 26.7805 1.00589 26.9769 1.00017H30.6559C31.5165 0.924216 32.3814 1.08647 33.1559 1.46917C33.2255 1.51696 33.2923 1.56871 33.3559 1.62417C33.4447 1.43921 33.5834 1.28277 33.7564 1.1725C33.9294 1.06223 34.1298 1.00254 34.3349 1.00017H35.9699C36.2316 1.00221 36.4839 1.09827 36.6807 1.27083C36.8775 1.4434 37.0057 1.68095 37.0419 1.94017C37.893 1.26622 38.9635 0.931353 40.0469 1.00017H41.5929C41.8319 0.999519 42.0647 1.07675 42.2559 1.22017C42.4463 1.07737 42.6779 1.00017 42.9159 1.00017H45.3159C45.5322 0.999673 45.7439 1.06297 45.9244 1.18214C46.1049 1.30131 46.2463 1.47106 46.3309 1.67017L46.9189 3.04517V2.10517C46.9192 1.81236 47.0355 1.5316 47.2425 1.32446C47.4494 1.11732 47.7301 1.0007 48.0229 1.00017H50.4629C50.6531 1.00076 50.84 1.05016 51.0056 1.14366C51.1713 1.23717 51.3101 1.37163 51.4089 1.53417L52.1689 2.79617V2.10617C52.1689 1.96084 52.1975 1.81694 52.2532 1.68269C52.3088 1.54844 52.3904 1.42647 52.4932 1.32376C52.596 1.22104 52.718 1.1396 52.8523 1.08407C52.9866 1.02855 53.1306 1.00004 53.2759 1.00017H54.9139C55.2071 1.00043 55.4883 1.11704 55.6957 1.3244C55.903 1.53176 56.0196 1.81292 56.0199 2.10617V8.80017C56.0206 8.94579 55.9924 9.09009 55.9371 9.2248C55.8818 9.35951 55.8004 9.48196 55.6977 9.58511C55.5949 9.68826 55.4727 9.77008 55.3382 9.82587C55.2037 9.88165 55.0595 9.9103 54.9139 9.91017H52.6479C52.4573 9.91012 52.27 9.86096 52.1039 9.76742C51.9379 9.67388 51.7987 9.53913 51.6999 9.37617L50.7179 7.74717V8.80017C50.7186 8.94579 50.6904 9.09009 50.6351 9.2248C50.5798 9.35951 50.4985 9.48196 50.3957 9.58511C50.2929 9.68826 50.1707 9.77008 50.0362 9.82587C49.9017 9.88165 49.7575 9.9103 49.6119 9.91017H46.3559C46.1376 9.91037 45.9241 9.84589 45.7424 9.72486C45.5607 9.60384 45.4189 9.4317 45.3349 9.23017L44.9969 8.41617H43.1509L42.8249 9.21617C42.7436 9.42037 42.6029 9.59552 42.4211 9.71904C42.2393 9.84256 42.0247 9.90878 41.8049 9.90917H39.9299C38.8907 9.94535 37.8695 9.63159 37.0299 9.01817C36.9833 9.26716 36.8515 9.4922 36.6573 9.65474C36.463 9.81729 36.2182 9.90723 35.9649 9.90917H34.3339C34.1589 9.9053 33.9874 9.85934 33.8339 9.77517C33.6806 9.85986 33.509 9.90586 33.3339 9.90917H31.7229C31.4306 9.90891 31.1502 9.79316 30.9429 9.58713C30.7355 9.38109 30.618 9.10147 30.6159 8.80917L30.6099 7.96417V7.81717C30.6099 7.72717 30.6099 7.59217 30.6049 7.47917C30.5319 7.47917 30.4329 7.47017 30.2939 7.47017H29.6819V8.80517C29.6819 9.0985 29.5654 9.37981 29.358 9.58723C29.1505 9.79465 28.8692 9.91117 28.5759 9.91117H26.9759C26.7787 9.90596 26.5868 9.84682 26.4209 9.74017C26.2555 9.84712 26.0638 9.90629 25.8669 9.91117H20.5209C20.3055 9.90545 20.0967 9.83583 19.9209 9.71117C19.745 9.83556 19.5362 9.90515 19.3209 9.91117H17.6869C17.5419 9.91196 17.3983 9.88409 17.2641 9.82917C17.13 9.77424 17.008 9.69334 16.9052 9.59112C16.8024 9.48889 16.7209 9.36736 16.6652 9.23351C16.6095 9.09966 16.5809 8.95613 16.5809 8.81117V8.77917L16.3689 9.25317C16.2829 9.44959 16.1415 9.61661 15.9618 9.73369C15.7822 9.85077 15.5723 9.91281 15.3579 9.91217L13.9559 9.91017ZM52.6469 8.80017H54.9149V2.10017H53.2759V6.77017L50.4629 2.10017H48.0229V8.43917L45.3149 2.10017H42.9149L40.6559 7.37117H39.9389C39.536 7.40604 39.1354 7.28186 38.8229 7.02517C38.4893 6.57272 38.3322 6.01417 38.3809 5.45417C38.3409 4.90882 38.5044 4.368 38.8399 3.93617C39.0037 3.78399 39.1986 3.66935 39.4112 3.60027C39.6238 3.53118 39.849 3.50931 40.0709 3.53617H41.5859V2.10017H40.0399C39.603 2.05894 39.1623 2.10681 38.7444 2.24088C38.3265 2.37495 37.9403 2.59244 37.6089 2.88017C37.3008 3.23929 37.0665 3.65563 36.9195 4.10536C36.7724 4.5551 36.7155 5.02941 36.7519 5.50117C36.7107 5.9636 36.7658 6.42954 36.9136 6.86963C37.0615 7.30971 37.2989 7.7144 37.6109 8.05817C38.2633 8.58564 39.0895 8.84965 39.9269 8.79817H41.8019L42.4019 7.30417H45.7289L46.3559 8.80017H49.6129V3.77617L52.6469 8.80017ZM34.3349 8.80017H35.9699V2.10017H34.3349V8.80017ZM26.9739 8.80017H28.5739V6.36617H30.2899C30.4937 6.33478 30.7016 6.34388 30.9019 6.39295C31.1021 6.44203 31.2907 6.53012 31.4569 6.65217C31.6851 7.04468 31.7739 7.50282 31.7089 7.95217L31.7169 8.79717H33.3319V7.48717C33.3838 7.05957 33.2901 6.62697 33.0659 6.25917C32.856 6.00441 32.5824 5.80981 32.2729 5.69517C32.6181 5.54457 32.9103 5.29408 33.1119 4.97594C33.3134 4.65781 33.4152 4.28662 33.4039 3.91017C33.4254 3.61118 33.3605 3.31232 33.2169 3.0492C33.0732 2.78608 32.857 2.56981 32.5939 2.42617C31.9876 2.14981 31.3188 2.03938 30.6559 2.10617H26.9739V8.80017ZM20.5189 8.80017H25.8659V7.41717H22.1199V6.07917H25.7779V4.70717H22.1199V3.50017H25.8659V2.10017H20.5199L20.5189 8.80017ZM17.6849 8.80017H19.3259V2.10017H16.6559L14.7349 6.64817L12.6399 2.10017H10.0259V8.44717L7.3019 2.10017H4.9259L2.0559 8.80017H3.7959L4.4179 7.30617H7.7559L8.3679 8.80017H11.6259V3.55217L13.9559 8.80017H15.3559L17.6769 3.55417L17.6849 8.80017ZM39.6179 4.72917C39.5205 4.95825 39.4771 5.20664 39.4909 5.45517C39.4714 5.72154 39.5149 5.98876 39.6179 6.23517C39.7212 6.25854 39.827 6.26929 39.9329 6.26717L40.6279 4.64617H40.0789C39.7029 4.64617 39.6639 4.68417 39.6179 4.72917ZM42.9799 5.91317L44.0799 3.24417L45.1909 5.91317H42.9799ZM4.9919 5.91317L6.0789 3.24417L7.1789 5.91317H4.9919ZM28.5759 4.98817V3.50017H30.5479C30.8069 3.48046 31.0669 3.52191 31.3069 3.62117C31.4152 3.67549 31.505 3.76075 31.5648 3.86615C31.6246 3.97154 31.6518 4.09231 31.6429 4.21317C31.6516 4.33927 31.6254 4.46533 31.5672 4.57752C31.509 4.68971 31.421 4.7837 31.3129 4.84917C31.0665 4.96561 30.7931 5.01296 30.5219 4.98617L28.5759 4.98817Z" fill="#727174"/>
</svg>
