<svg width="34" height="28" viewBox="0 0 34 28" fill="none" xmlns="http://www.w3.org/2000/svg">
<path d="M7.81898 25.774C7.80976 25.9346 7.84858 26.0944 7.9305 26.2329C8.01241 26.3713 8.13371 26.4823 8.27892 26.5515C8.42414 26.6208 8.58669 26.6453 8.74586 26.6218C8.90502 26.5983 9.05359 26.528 9.17262 26.4197C9.29165 26.3115 9.37575 26.1702 9.41419 26.014C9.45263 25.8578 9.44368 25.6936 9.38847 25.5425C9.33326 25.3914 9.2343 25.2601 9.1042 25.1655C8.9741 25.0708 8.81876 25.0171 8.65799 25.011C8.55274 25.0058 8.44749 25.0214 8.34829 25.0569C8.24909 25.0925 8.15789 25.1473 8.07993 25.2182C8.00197 25.2891 7.93878 25.3747 7.894 25.4701C7.84922 25.5655 7.82373 25.6688 7.81898 25.774ZM9.98499 24.436V27.111H9.40298V26.786C9.30372 26.9141 9.17518 27.0166 9.02816 27.0848C8.88114 27.153 8.71991 27.185 8.55798 27.178C8.19832 27.1588 7.85971 27.0024 7.61191 26.741C7.3641 26.4797 7.22598 26.1332 7.22598 25.773C7.22598 25.4128 7.3641 25.0664 7.61191 24.805C7.85971 24.5436 8.19832 24.3872 8.55798 24.368C8.71991 24.3611 8.88114 24.393 9.02816 24.4613C9.17518 24.5295 9.30372 24.6319 9.40298 24.76V24.435L9.98499 24.436ZM29.641 25.774C29.6318 25.9346 29.6706 26.0944 29.7525 26.2329C29.8344 26.3713 29.9557 26.4823 30.1009 26.5515C30.2461 26.6208 30.4087 26.6453 30.5679 26.6218C30.727 26.5983 30.8756 26.528 30.9946 26.4197C31.1137 26.3115 31.1977 26.1702 31.2362 26.014C31.2746 25.8578 31.2657 25.6936 31.2105 25.5425C31.1553 25.3914 31.0563 25.2601 30.9262 25.1655C30.7961 25.0708 30.6408 25.0171 30.48 25.011C30.3747 25.0058 30.2695 25.0214 30.1703 25.0569C30.0711 25.0925 29.9799 25.1473 29.9019 25.2182C29.824 25.2891 29.7608 25.3747 29.716 25.4701C29.6712 25.5655 29.6457 25.6688 29.641 25.774ZM31.807 23.361V27.11H31.224V26.785C31.1247 26.9131 30.9962 27.0156 30.8492 27.0838C30.7021 27.152 30.5409 27.184 30.379 27.177C30.0193 27.1578 29.6807 27.0014 29.4329 26.74C29.1851 26.4787 29.047 26.1322 29.047 25.772C29.047 25.4118 29.1851 25.0654 29.4329 24.804C29.6807 24.5426 30.0193 24.3862 30.379 24.367C30.5409 24.3601 30.7021 24.392 30.8492 24.4603C30.9962 24.5285 31.1247 24.6309 31.224 24.759V23.359L31.807 23.361ZM17.207 24.889C17.0272 24.883 16.8522 24.9475 16.7193 25.0688C16.5865 25.19 16.5063 25.3584 16.496 25.538H17.884C17.8798 25.3621 17.8059 25.195 17.6786 25.0735C17.5513 24.952 17.3809 24.886 17.205 24.89L17.207 24.889ZM17.218 24.367C17.3957 24.3681 17.5712 24.406 17.7335 24.4785C17.8958 24.551 18.0412 24.6564 18.1606 24.788C18.28 24.9196 18.3707 25.0746 18.4271 25.2431C18.4835 25.4117 18.5042 25.5901 18.488 25.767C18.488 25.845 18.482 25.918 18.476 25.991H16.488C16.5102 26.1827 16.6061 26.3583 16.7554 26.4805C16.9047 26.6027 17.0957 26.6621 17.288 26.646C17.5712 26.6415 17.8448 26.543 18.066 26.366L18.351 26.797C18.043 27.0533 17.6513 27.1868 17.251 27.172C16.8867 27.1643 16.5397 27.0155 16.283 26.7569C16.0263 26.4983 15.88 26.1502 15.8749 25.7859C15.8699 25.4215 16.0064 25.0695 16.2559 24.8039C16.5053 24.5383 16.8481 24.3799 17.212 24.362L17.218 24.367ZM24.242 25.767C24.2328 25.9276 24.2716 26.0874 24.3535 26.2259C24.4354 26.3643 24.5567 26.4753 24.7019 26.5445C24.8471 26.6138 25.0097 26.6383 25.1689 26.6148C25.328 26.5913 25.4766 26.521 25.5956 26.4127C25.7147 26.3045 25.7987 26.1632 25.8372 26.007C25.8756 25.8508 25.8667 25.6866 25.8115 25.5355C25.7563 25.3844 25.6573 25.2531 25.5272 25.1585C25.3971 25.0638 25.2418 25.0101 25.081 25.004C24.9757 24.9988 24.8705 25.0144 24.7713 25.0499C24.6721 25.0855 24.5809 25.1403 24.5029 25.2112C24.425 25.2821 24.3618 25.3677 24.317 25.4631C24.2722 25.5585 24.2467 25.6618 24.242 25.767ZM26.408 24.429V27.11H25.824V26.785C25.7247 26.9131 25.5961 27.0155 25.4491 27.0837C25.3021 27.1519 25.1409 27.1839 24.979 27.177C24.6193 27.1578 24.2807 27.0014 24.0329 26.74C23.7851 26.4787 23.647 26.1322 23.647 25.772C23.647 25.4118 23.7851 25.0654 24.0329 24.804C24.2807 24.5426 24.6193 24.3862 24.979 24.367C25.1409 24.3602 25.3021 24.3922 25.4491 24.4604C25.5961 24.5286 25.7247 24.631 25.824 24.759V24.434L26.408 24.429ZM20.957 25.767C20.9499 25.5789 20.9821 25.3915 21.0517 25.2166C21.1212 25.0417 21.2265 24.8833 21.3609 24.7514C21.4952 24.6196 21.6556 24.5174 21.8318 24.4512C22.008 24.385 22.1961 24.3563 22.384 24.367C22.7332 24.3495 23.0764 24.4633 23.346 24.686L23.067 25.156C22.8657 25.0024 22.6202 24.9179 22.367 24.915C22.1486 24.928 21.9434 25.0238 21.7933 25.183C21.6433 25.3422 21.5597 25.5527 21.5597 25.7715C21.5597 25.9903 21.6433 26.2008 21.7933 26.36C21.9434 26.5192 22.1486 26.6151 22.367 26.628C22.6202 26.6252 22.8657 26.5407 23.067 26.387L23.346 26.857C23.0764 27.0798 22.7332 27.1936 22.384 27.176C22.1961 27.1868 22.008 27.1581 21.8318 27.0919C21.6556 27.0257 21.4952 26.9234 21.3609 26.7916C21.2265 26.6598 21.1212 26.5014 21.0517 26.3265C20.9821 26.1516 20.9499 25.9641 20.957 25.776V25.767ZM28.457 24.367C28.5981 24.3676 28.7381 24.3923 28.871 24.44L28.692 24.988C28.5763 24.9419 28.4525 24.9191 28.328 24.921C27.948 24.921 27.757 25.167 27.757 25.61V27.11H27.174V24.435H27.75V24.76C27.8213 24.6377 27.9241 24.5367 28.0478 24.4678C28.1715 24.3988 28.3114 24.3644 28.453 24.368L28.457 24.367ZM12.865 24.649L12.612 25.119C12.3579 24.9731 12.0709 24.8943 11.778 24.89C11.459 24.89 11.269 25.008 11.269 25.203C11.269 25.382 11.469 25.433 11.723 25.466L11.997 25.506C12.579 25.59 12.932 25.836 12.932 26.306C12.932 26.815 12.484 27.179 11.712 27.179C11.2991 27.1902 10.8936 27.0686 10.555 26.832L10.829 26.379C11.0858 26.5697 11.3993 26.6683 11.719 26.659C12.119 26.659 12.329 26.541 12.329 26.334C12.329 26.183 12.178 26.099 11.859 26.054L11.584 26.015C10.984 25.931 10.661 25.662 10.661 25.226C10.661 24.694 11.097 24.37 11.775 24.37C12.1563 24.3579 12.5331 24.455 12.861 24.65L12.865 24.649ZM20.37 24.369C20.5115 24.3695 20.6518 24.3942 20.785 24.442L20.606 24.99C20.4903 24.9439 20.3666 24.9211 20.242 24.923C19.862 24.923 19.671 25.169 19.671 25.612V27.112H19.089V24.437H19.666V24.762C19.7368 24.6397 19.8393 24.5386 19.9626 24.4694C20.086 24.4003 20.2256 24.3656 20.367 24.369H20.37ZM15.406 24.436V24.968H14.455V26.177C14.455 26.445 14.55 26.625 14.841 26.625C15.0226 26.619 15.1998 26.567 15.356 26.474L15.524 26.974C15.3057 27.1103 15.0533 27.182 14.796 27.181C14.108 27.181 13.867 26.811 13.867 26.191V24.971H13.324V24.439H13.866V23.627H14.454V24.439L15.406 24.436ZM6.70598 27.111H6.11699V25.622C6.11699 25.168 5.92698 24.917 5.52998 24.917C5.43794 24.9128 5.34609 24.9287 5.26087 24.9637C5.17566 24.9988 5.09915 25.0521 5.03672 25.1198C4.97429 25.1876 4.92746 25.2682 4.89952 25.356C4.87158 25.4438 4.8632 25.5366 4.87498 25.628V27.111H4.28698V25.622C4.28698 25.168 4.08698 24.917 3.70498 24.917C3.61271 24.9119 3.52044 24.9272 3.4348 24.9619C3.34915 24.9967 3.27226 25.0499 3.20964 25.1179C3.14703 25.1859 3.10023 25.2669 3.07263 25.3551C3.04503 25.4433 3.03729 25.5365 3.04998 25.628V27.111H2.46298V24.436H3.04498V24.766C3.12933 24.6369 3.24595 24.5321 3.3833 24.4619C3.52064 24.3917 3.67393 24.3587 3.82798 24.366C4.00453 24.3585 4.17983 24.3987 4.33541 24.4825C4.491 24.5663 4.62109 24.6905 4.71198 24.842C4.81177 24.6859 4.95162 24.5593 5.11695 24.4756C5.28229 24.3919 5.46705 24.354 5.65199 24.366C5.79309 24.3584 5.93421 24.3807 6.06604 24.4316C6.19788 24.4825 6.31744 24.5607 6.41684 24.6611C6.51624 24.7616 6.59322 24.8819 6.64272 25.0143C6.69221 25.1467 6.71309 25.288 6.70399 25.429L6.70598 27.111ZM17.949 1.83303C17.872 1.76903 17.842 1.72103 17.849 1.67903C19.3776 0.669106 21.1513 0.0921232 22.9815 0.00937505C24.8118 -0.0733731 26.6302 0.341205 28.2438 1.20906C29.8573 2.07692 31.2056 3.36564 32.1454 4.93833C33.0853 6.51101 33.5816 8.30891 33.5816 10.141C33.5816 11.9731 33.0853 13.771 32.1454 15.3437C31.2056 16.9164 29.8573 18.2051 28.2438 19.073C26.6302 19.9408 24.8118 20.3554 22.9815 20.2727C21.1513 20.1899 19.3776 19.6129 17.849 18.603C17.8691 18.5632 17.8987 18.5289 17.935 18.503C18.3295 18.1795 18.6974 17.8246 19.035 17.442C19.9355 16.4278 20.6425 15.2571 21.121 13.988C21.44 13.1514 21.6524 12.2778 21.753 11.388C21.9686 9.4227 21.6526 7.43552 20.838 5.63402C20.1752 4.16461 19.1874 2.86492 17.949 1.83303ZM13.316 10.127C13.3152 8.59113 13.6626 7.07503 14.332 5.6927C15.0014 4.31037 15.9755 3.09776 17.181 2.14603C17.211 2.14582 17.2408 2.15154 17.2686 2.16287C17.2964 2.1742 17.3217 2.1909 17.343 2.21203C18.5027 3.15548 19.442 4.34119 20.095 5.68603C20.5128 6.54367 20.8048 7.45706 20.962 8.39802C21.0728 9.02746 21.1241 9.66596 21.115 10.305C21.0886 11.7945 20.7382 13.2603 20.0882 14.6007C19.4382 15.9412 18.5042 17.124 17.351 18.067C17.3139 18.1025 17.268 18.1273 17.218 18.139C16.0017 17.1877 15.0181 15.9718 14.342 14.5835C13.6659 13.1953 13.315 11.6712 13.316 10.127ZM0.860985 9.39102C0.994964 7.62584 1.58783 5.92631 2.58084 4.46079C3.57385 2.99528 4.93255 1.81465 6.5223 1.03589C8.11206 0.257128 9.87771 -0.0927435 11.6443 0.0209412C13.4109 0.134626 15.1172 0.707919 16.594 1.68402C16.6 1.72602 16.56 1.76603 16.494 1.81703C16.312 1.96703 16.133 2.12303 15.965 2.28903C13.9021 4.28931 12.7028 7.01669 12.623 9.88902C12.6025 10.7371 12.6824 11.5847 12.861 12.414C13.0273 13.2037 13.2801 13.9727 13.615 14.707C14.2848 16.1783 15.2757 17.4809 16.515 18.519C16.5442 18.541 16.5684 18.569 16.586 18.601C15.0561 19.61 13.2818 20.1863 11.451 20.2689C9.62023 20.3516 7.8012 19.9374 6.18665 19.0704C4.57209 18.2033 3.22214 16.9157 2.27982 15.3439C1.3375 13.7721 0.837911 11.9747 0.833984 10.142C0.833984 9.91002 0.842985 9.67902 0.857985 9.45103C0.860985 9.42902 0.860985 9.41002 0.860985 9.39102Z" fill="#727174"/>
</svg>
