<svg width="61" height="17" viewBox="0 0 61 17" fill="none" xmlns="http://www.w3.org/2000/svg">
<path fill-rule="evenodd" clip-rule="evenodd" d="M47.0558 2.91605C49.1938 2.81605 51.5268 3.69405 51.0408 6.31605L49.6798 12.635H46.5698L46.7638 11.566C45.1118 13.315 40.8348 13.218 41.5158 9.33105C42.0018 6.99805 44.3348 6.31805 47.8338 6.31805C48.0278 5.24905 47.3478 5.05405 46.1818 5.05405C45.1536 5.15759 44.1418 5.38593 43.1688 5.73405L43.4608 3.49905C44.6336 3.17117 45.8395 2.97562 47.0558 2.91605ZM47.2498 9.42805C47.2498 9.13605 47.3498 8.74805 47.4438 8.84505H46.6658C45.9858 8.84505 45.1108 8.84505 44.7218 9.42805C44.3328 10.206 44.9158 10.594 45.5968 10.594C46.3748 10.497 47.0558 10.206 47.2498 9.42805ZM53.6648 4.57764e-05H56.8718L54.2478 12.635H51.1378L53.6648 4.57764e-05ZM39.1828 4.57764e-05C40.8348 4.57764e-05 42.8758 2.13805 42.3898 4.95705C42.1897 6.05821 41.5966 7.04926 40.7207 7.74599C39.8448 8.44272 38.7458 8.79773 37.6278 8.74505H35.1948L34.3198 12.633H30.9198L33.4468 -0.00195312L39.1828 4.57764e-05ZM39.0828 4.37405C39.1449 4.19789 39.1611 4.00882 39.1299 3.82468C39.0986 3.64053 39.0211 3.46736 38.9044 3.3215C38.7878 3.17563 38.6359 3.06186 38.4631 2.99093C38.2903 2.91999 38.1023 2.89423 37.9168 2.91605H36.2668L35.5868 5.83205H37.1418C37.5816 5.8389 38.0113 5.69941 38.3632 5.43549C38.715 5.17157 38.9693 4.79819 39.0858 4.37405H39.0828ZM16.7318 2.91605C18.8698 2.81605 21.2998 3.69405 20.8138 6.31605L19.4528 12.635H16.3428L16.5368 11.566C14.8848 13.315 10.7048 13.218 11.3858 9.33105C11.8718 6.99805 14.2048 6.31805 17.6058 6.31805C17.7998 5.24905 17.1198 5.05405 15.9538 5.05405C14.9237 5.14566 13.9104 5.37435 12.9408 5.73405L13.2328 3.49905C14.3708 3.16171 15.546 2.9659 16.7318 2.91605ZM17.0238 9.42805C17.0238 9.13605 17.1238 8.74805 17.2178 8.84505H16.4398C15.8568 8.84505 14.9818 8.84505 14.5928 9.42805C14.1068 10.206 14.6928 10.594 15.3708 10.594C16.1488 10.497 16.8288 10.206 17.0228 9.42805H17.0238ZM22.0778 2.91605H25.1878L25.6738 8.35905L28.7838 2.91605H31.9948L24.6038 16.523H21.1038L23.3408 12.445L22.0778 2.91605ZM9.05382 4.57764e-05C10.7058 4.57764e-05 12.7468 2.13805 12.1638 4.95705C11.9637 6.05838 11.3704 7.04957 10.4943 7.74632C9.61825 8.44308 8.51895 8.79798 7.40082 8.74505H4.97082L4.09482 12.635H0.694824L3.22182 4.57764e-05H9.05382ZM8.95382 4.37405C9.01552 4.19849 9.03167 4.01016 9.00076 3.82667C8.96986 3.64317 8.89292 3.47051 8.77712 3.32485C8.66133 3.17919 8.51048 3.06528 8.33869 2.99378C8.16689 2.92229 7.97977 2.89554 7.79482 2.91605H6.13782L5.45782 5.83205H7.01282C7.45247 5.83868 7.88186 5.69908 8.23355 5.43518C8.58524 5.17128 8.8393 4.79802 8.95582 4.37405H8.95382ZM57.5538 2.04105V0.681046H57.0678V0.487045H58.3318V0.681046H57.8458V2.04504L57.5538 2.04105ZM58.5258 2.04105V0.486046H58.8178L59.2068 1.55505C59.2179 1.62897 59.253 1.69717 59.3068 1.74905C59.3068 1.64905 59.3068 1.64905 59.4068 1.45705L59.7958 0.388046H60.0878V1.94505H59.8848V0.584045L59.3948 1.94505H59.1028L58.6168 0.584045V1.94505H58.5168L58.5258 2.04105Z" fill="#727174"/>
</svg>
