<svg width="17" height="16" viewBox="0 0 17 16" fill="none" xmlns="http://www.w3.org/2000/svg">
<path d="M8.49996 1.23827L6.78578 4.67085C6.48377 5.27561 5.90269 5.68406 5.23137 5.76347L1.3391 6.22378L4.11663 8.67459C4.65151 9.14656 4.89544 9.87399 4.75323 10.573L4.02543 14.1504L7.58015 12.3092C7.86318 12.1626 8.18125 12.0851 8.49997 12.0851C8.81869 12.0851 9.13676 12.1626 9.41981 12.3092L12.9745 14.1504C12.9745 14.1504 12.9745 14.1504 12.9745 14.1504L12.2467 10.573C12.1045 9.87399 12.3484 9.14656 12.8833 8.67459L15.6608 6.22378L11.7685 5.76347C11.0972 5.68407 10.5162 5.27561 10.2142 4.67087L8.49996 1.23827ZM8.49997 0.238281C8.8552 0.238281 9.21043 0.422689 9.39461 0.791505L11.1088 4.22408C11.2593 4.52547 11.5515 4.73082 11.886 4.77039L15.7783 5.2307C16.6368 5.33223 16.9707 6.40164 16.3225 6.97361L13.5449 9.42443C13.2767 9.66111 13.1553 10.0231 13.2266 10.3736L13.9544 13.951C14.122 14.7745 13.2607 15.4248 12.5146 15.0383L8.95989 13.1972C8.67147 13.0478 8.32847 13.0478 8.04005 13.1972L4.48535 15.0383C3.73919 15.4248 2.87798 14.7745 3.0455 13.951L3.7733 10.3736C3.84462 10.0231 3.72324 9.66111 3.455 9.42443L0.677458 6.97361C0.0292495 6.40165 0.363148 5.33223 1.22165 5.2307L5.11393 4.77039C5.44847 4.73082 5.74062 4.52547 5.89113 4.22408L7.60532 0.791505C7.7895 0.422689 8.14474 0.238281 8.49997 0.238281Z" fill="#F5B423"/>
</svg>
