<svg width="47" height="16" viewBox="0 0 47 16" fill="none" xmlns="http://www.w3.org/2000/svg">
<path fill-rule="evenodd" clip-rule="evenodd" d="M41.899 9.69791H41.058C41.0228 9.69535 40.9874 9.69838 40.953 9.70691C40.9442 9.70978 40.9365 9.71538 40.931 9.72291C40.916 9.71146 40.8987 9.70324 40.8802 9.69877C40.8618 9.6943 40.8427 9.69366 40.8241 9.69691H39.846C39.8276 9.69372 39.8087 9.6943 39.7905 9.69859C39.7723 9.70289 39.7551 9.71082 39.7401 9.72191L39.733 9.71191C39.7009 9.70088 39.6668 9.69679 39.633 9.69991C39.511 9.69991 39.389 9.69991 39.267 9.69991C39.183 9.69991 39.176 9.68691 39.204 9.60891C39.28 9.40291 39.35 9.19491 39.428 8.98891C39.4421 8.95928 39.4486 8.92665 39.4471 8.89391V8.88691C39.4791 8.86991 39.485 8.83391 39.496 8.80391C39.621 8.45691 39.748 8.11191 39.873 7.76491C39.883 7.73791 39.898 7.70991 39.873 7.68191C39.908 7.68191 39.912 7.6479 39.92 7.6239C40.132 7.0369 40.351 6.45291 40.551 5.86191C40.5625 5.83724 40.5673 5.81001 40.565 5.78291C40.602 5.77391 40.603 5.73791 40.614 5.71091C40.783 5.25391 40.947 4.79591 41.114 4.3379C41.1205 4.32131 41.1239 4.3037 41.124 4.2859C41.13 4.30391 41.133 4.32191 41.137 4.33991C41.1541 4.45459 41.1819 4.56741 41.22 4.67691V4.68391C41.2103 4.70796 41.2103 4.73485 41.22 4.7589C41.231 4.8239 41.244 4.88791 41.258 4.95191C41.5387 6.2979 41.8201 7.64391 42.1021 8.98991C42.1531 9.2319 42.194 9.47591 42.26 9.71591C42.264 9.71561 42.2681 9.71561 42.272 9.71591C42.235 9.69837 42.1945 9.68928 42.1535 9.68928C42.1126 9.68928 42.0721 9.69837 42.035 9.71591C42.0275 9.70872 42.0187 9.70297 42.009 9.69891C41.9742 9.69153 41.9386 9.68884 41.903 9.69091M46.857 14.8339C46.722 14.1899 46.589 13.5459 46.457 12.9019C46.357 12.4389 46.257 11.9769 46.164 11.5139C46.1643 11.5112 46.1643 11.5086 46.164 11.5059L44.917 5.5289C44.5544 3.79557 44.193 2.06224 43.833 0.328905C43.82 0.268905 43.802 0.249905 43.739 0.249905H40.578C40.5267 0.244317 40.4747 0.248732 40.425 0.262905C40.1573 0.276952 39.898 0.361095 39.673 0.506905C39.647 0.520905 39.62 0.533905 39.596 0.549905C39.269 0.777832 39.0262 1.10713 38.905 1.48691L38.178 3.22191C38.147 3.29391 38.114 3.36491 38.085 3.43691L37.702 4.3649C37.656 4.4719 37.607 4.57691 37.563 4.68491L37.099 5.81991C37.0726 5.86033 37.0524 5.90449 37.039 5.9509L36.495 7.25691C36.47 7.31391 36.4441 7.3699 36.4211 7.42691L36.032 8.36691C35.949 8.56091 35.865 8.75391 35.784 8.94891L35.284 10.1489C35.248 10.2309 35.211 10.3119 35.177 10.3939L34.695 11.5549C34.487 12.0309 34.288 12.5109 34.095 12.9929C34.0892 12.9986 34.0842 13.005 34.08 13.0119C33.8294 13.6119 33.579 14.2119 33.329 14.8119C33.3116 14.8388 33.3016 14.8699 33.3 14.9019H37.1001C37.119 14.9008 37.1381 14.9008 37.157 14.9019C37.241 14.9179 37.278 14.8819 37.305 14.8019C37.393 14.5399 37.492 14.2829 37.586 14.0219C37.686 13.7389 37.786 13.4559 37.886 13.1729C37.934 13.0469 37.986 12.9209 38.028 12.7929C38.0302 12.7806 38.0348 12.7688 38.0416 12.7582C38.0484 12.7477 38.0572 12.7386 38.0675 12.7315C38.0779 12.7244 38.0895 12.7195 38.1018 12.717C38.1141 12.7145 38.1267 12.7145 38.139 12.7169C38.283 12.7169 38.427 12.7169 38.571 12.7169C38.947 12.7242 39.3231 12.7242 39.6991 12.7169C40.0857 12.7242 40.4724 12.7242 40.859 12.7169C41.259 12.7242 41.6564 12.7242 42.051 12.7169C42.309 12.7169 42.568 12.7229 42.827 12.7169C42.896 12.7169 42.919 12.7399 42.932 12.8019C43.073 13.4869 43.217 14.1709 43.357 14.8559C43.365 14.8949 43.381 14.9049 43.416 14.9049H43.963H45.973H46.545C46.635 14.9049 46.725 14.9049 46.814 14.9049C46.872 14.9049 46.872 14.8869 46.862 14.8389" fill="#727174"/>
<path fill-rule="evenodd" clip-rule="evenodd" d="M16.494 3.35498C16.571 3.17398 16.65 2.99298 16.726 2.81098C16.85 2.51098 16.971 2.21698 17.094 1.91898C17.1547 1.79542 17.2085 1.66855 17.255 1.53898C17.3004 1.44942 17.3389 1.35647 17.37 1.26098L17.794 0.26798H17.733H13.879C13.857 0.26798 13.83 0.255981 13.813 0.281981L13.679 0.62498C13.594 0.83598 13.507 1.04698 13.424 1.25798C13.306 1.55798 13.19 1.85798 13.073 2.15798C12.948 2.46898 12.822 2.77998 12.698 3.09098C12.587 3.37298 12.478 3.65598 12.368 3.93798C12.155 4.45298 11.952 4.97098 11.752 5.49198C11.706 5.60298 11.659 5.71398 11.615 5.82598L11.195 6.90198L10.607 8.38798C10.582 8.44798 10.556 8.50698 10.532 8.56798L10.019 9.87498L9.876 10.22C9.869 10.2 9.863 10.18 9.857 10.159C9.795 9.83098 9.735 9.50298 9.673 9.17498C9.621 8.90098 9.567 8.62698 9.513 8.35298C9.51399 8.33399 9.51399 8.31497 9.513 8.29598L9.288 7.13298C9.1 6.13298 8.912 5.13298 8.724 4.13298C8.572 3.32598 8.424 2.51798 8.265 1.71398C8.19342 1.30503 7.97885 0.93481 7.65959 0.669401C7.34033 0.403993 6.93715 0.26066 6.522 0.26498H0.159C0.135 0.26498 0.104 0.24998 0.085 0.27998C0.058 0.40198 0.031 0.52398 0 0.64498C0 0.67298 0 0.69298 0.031 0.701981L0.648 0.839981C0.65449 0.844547 0.66155 0.848245 0.669 0.850981C1.162 0.972981 1.65 1.11298 2.131 1.27498L2.58 1.42598C3.04295 1.59621 3.49169 1.80286 3.922 2.04398C4.06263 2.14003 4.18803 2.25667 4.294 2.38998C4.44349 2.61974 4.54957 2.87496 4.607 3.14298C4.83433 4.01431 5.061 4.88631 5.287 5.75898L6.845 11.788C7.10833 12.8053 7.37067 13.8236 7.632 14.843C7.63293 14.8533 7.63601 14.8633 7.64106 14.8724C7.64611 14.8815 7.65301 14.8894 7.6613 14.8956C7.6696 14.9018 7.67912 14.9062 7.68923 14.9085C7.69934 14.9108 7.70982 14.911 7.72 14.909C7.954 14.909 8.188 14.909 8.42 14.909H9.605H10.748H11.61C11.636 14.909 11.655 14.909 11.666 14.876C11.713 14.755 11.766 14.635 11.811 14.516C11.878 14.36 11.947 14.204 12.011 14.048C12.146 13.725 12.278 13.402 12.411 13.079C12.419 13.066 12.426 13.052 12.433 13.037L12.999 11.675C13.011 11.65 13.024 11.627 13.034 11.603L13.588 10.27C13.678 10.061 13.768 9.85198 13.856 9.64198C13.975 9.35698 14.092 9.07098 14.21 8.78498C14.289 8.60098 14.37 8.41798 14.447 8.23298C14.576 7.92298 14.704 7.61198 14.832 7.30198C14.8579 7.26594 14.8744 7.224 14.88 7.17998L14.945 7.03298C14.956 7.01198 14.967 6.99098 14.978 6.96798L15.567 5.54898C15.7 5.23498 15.835 4.92198 15.967 4.60698C16.141 4.19098 16.313 3.77498 16.486 3.35898" fill="#727174"/>
<path fill-rule="evenodd" clip-rule="evenodd" d="M23.2029 0.265202H19.8499C19.7239 0.265202 19.5989 0.265202 19.4749 0.265202C19.4529 0.265202 19.4159 0.248202 19.4149 0.295202L19.3659 0.524202C19.3659 0.540202 19.3549 0.555202 19.3519 0.571202C19.2412 1.08854 19.1309 1.60587 19.0209 2.1232C18.9649 2.3852 18.9119 2.6482 18.8579 2.9112C18.8548 2.91581 18.8524 2.92087 18.8509 2.9262C18.7449 3.4222 18.6392 3.91854 18.5339 4.4152C18.4981 4.55297 18.4694 4.69249 18.4479 4.8332C18.4019 4.9962 18.3719 5.1622 18.3389 5.3332L18.0279 6.7882C17.9969 6.9282 17.9639 7.0682 17.9339 7.2092L17.6989 8.3242C17.6921 8.33875 17.6864 8.3538 17.6819 8.3692C17.5899 8.79854 17.4989 9.2282 17.4089 9.6582L17.1919 10.6932C17.1499 10.8812 17.1069 11.0682 17.0679 11.2572L16.7679 12.6702C16.7429 12.7842 16.7159 12.8982 16.6919 13.0112L16.2979 14.8492C16.2909 14.8832 16.2789 14.9122 16.3349 14.9122C16.7729 14.9122 17.2099 14.9122 17.6479 14.9122H18.8249H20.0189C20.0519 14.9122 20.0649 14.9042 20.0709 14.8702C20.0829 14.8072 20.1009 14.7462 20.1169 14.6832C20.1869 14.3632 20.2589 14.0432 20.3279 13.7222C20.3689 13.5322 20.4059 13.3412 20.4449 13.1502C20.45 13.1385 20.4544 13.1265 20.4579 13.1142L20.7679 11.6422L20.8679 11.2012L20.9549 10.7812C20.9709 10.7182 20.9879 10.6562 21.0009 10.5922L21.2809 9.2582C21.2862 9.24898 21.2905 9.23927 21.2939 9.2292C21.4086 8.69587 21.5226 8.16254 21.6359 7.6292C21.6879 7.3832 21.7359 7.1362 21.7879 6.8892C21.7932 6.87965 21.7975 6.8696 21.8009 6.8592C21.9436 6.19854 22.0849 5.53787 22.2249 4.8772C22.2939 4.5502 22.3609 4.2232 22.4249 3.8972C22.4295 3.88756 22.4331 3.87752 22.4359 3.8672C22.6359 2.92987 22.8359 1.99254 23.0359 1.0552C23.0919 0.795202 23.1459 0.535202 23.2029 0.269202" fill="#727174"/>
<path fill-rule="evenodd" clip-rule="evenodd" d="M34.1139 0.623023C34.0379 0.601023 33.9649 0.571023 33.8909 0.546023C33.4955 0.410416 33.0916 0.30052 32.6819 0.217023C32.6559 0.211023 32.6299 0.203023 32.6029 0.197023C32.0165 0.0771069 31.4204 0.0108334 30.8219 -0.000976562L30.4219 0.00502344V-0.000976562C30.2049 0.0110234 29.9879 0.0190234 29.7719 0.0360234C29.6007 0.0452457 29.4303 0.0662959 29.2619 0.0990234C28.9097 0.139927 28.5617 0.211533 28.2219 0.313023C27.8487 0.404193 27.4857 0.533541 27.1389 0.699023C26.816 0.837433 26.5092 1.0108 26.2239 1.21602C25.9028 1.42857 25.6112 1.68279 25.3569 1.97202C25.2812 2.04556 25.2119 2.12552 25.1499 2.21102C24.9356 2.47723 24.7577 2.77081 24.6209 3.08402C24.6109 3.10302 24.5999 3.12102 24.5899 3.14102C24.409 3.55353 24.2955 3.99248 24.2539 4.44102C24.1911 4.98268 24.2597 5.5315 24.4539 6.04102C24.683 6.59324 25.0357 7.08553 25.4849 7.48002C25.8152 7.78598 26.1784 8.0543 26.5679 8.28002C26.5827 8.29149 26.5981 8.30217 26.6139 8.31202C26.9199 8.49602 27.2369 8.66102 27.5559 8.82002C27.6999 8.89202 27.8439 8.96102 27.9889 9.03202C28.1409 9.11902 28.2949 9.20502 28.4469 9.29302C28.6926 9.43215 28.9209 9.6 29.1269 9.79302C29.3329 9.97856 29.4688 10.2292 29.5119 10.503C29.5119 10.503 29.5119 10.503 29.5119 10.508V10.742C29.5119 10.742 29.5119 10.742 29.5119 10.747C29.479 10.9975 29.3685 11.2315 29.1959 11.416C29.0207 11.5817 28.8176 11.7151 28.5959 11.81C28.4589 11.869 28.3149 11.91 28.1739 11.956C27.8007 12.0405 27.4185 12.0792 27.0359 12.071L26.5729 12.058C26.1499 12.0313 25.7298 11.9697 25.3169 11.874C25.1309 11.828 24.9449 11.774 24.7589 11.726C24.5679 11.655 24.3769 11.587 24.1869 11.512C23.9289 11.412 23.6789 11.291 23.4269 11.175C23.4039 11.164 23.3659 11.122 23.3529 11.185C23.2919 11.474 23.2329 11.764 23.1729 12.053C23.1673 12.0653 23.1626 12.078 23.1589 12.091C23.0029 12.8244 22.8459 13.5577 22.6879 14.291C22.6843 14.2994 22.6826 14.3084 22.6829 14.3175C22.6832 14.3266 22.6854 14.3355 22.6895 14.3436C22.6936 14.3517 22.6995 14.3588 22.7066 14.3644C22.7138 14.37 22.7221 14.374 22.7309 14.376C23.0734 14.5222 23.4268 14.6412 23.7879 14.732C23.9336 14.7762 24.0824 14.8096 24.2329 14.832C24.3453 14.8636 24.4595 14.888 24.5749 14.905C24.8602 14.9616 25.1483 15.0033 25.4379 15.03C25.4649 15.044 25.4969 15.03 25.5239 15.044H25.5839C25.5839 15.044 25.5909 15.044 25.5939 15.044C25.6156 15.0523 25.6389 15.0554 25.6619 15.053C25.6619 15.053 25.6679 15.053 25.6719 15.053H25.7489C25.7819 15.069 25.8189 15.053 25.8489 15.065H25.9249C25.9381 15.0681 25.9518 15.0681 25.9649 15.065C25.9832 15.0701 26.002 15.0728 26.0209 15.073L26.7809 15.11V15.124H27.1079V15.11L27.1409 15.105C27.2035 15.1107 27.2664 15.1107 27.3289 15.105H27.3539H27.3919H27.5489C27.5946 15.1105 27.6409 15.1065 27.6849 15.093H27.6909H27.7389C28.0724 15.0705 28.4043 15.0287 28.7329 14.968C28.9164 14.9398 29.0978 14.8994 29.2759 14.847C29.646 14.7679 30.0072 14.6516 30.3539 14.5C30.6017 14.3985 30.8417 14.2788 31.0719 14.142C31.1019 14.147 31.1209 14.123 31.1439 14.111C31.445 13.9312 31.7274 13.7218 31.9869 13.486C31.9944 13.4837 32.0014 13.4803 32.0079 13.476C32.321 13.1958 32.5906 12.8706 32.8079 12.511C32.8189 12.496 32.8309 12.481 32.8399 12.465C33.3082 11.6761 33.5251 10.7633 33.4619 9.84802C33.4188 9.03011 33.0793 8.2559 32.5069 7.67002C31.9069 7.07582 31.2121 6.58578 30.4509 6.22002C29.9509 5.94602 29.4509 5.69802 28.9639 5.39902C28.9429 5.38302 28.9219 5.36602 28.8999 5.35102C28.6903 5.21621 28.5047 5.0472 28.3509 4.85102C28.2753 4.75599 28.2208 4.64589 28.1912 4.5281C28.1615 4.41032 28.1573 4.28755 28.1789 4.16802C28.2145 4.03581 28.273 3.91089 28.3519 3.79902C28.588 3.51168 28.9073 3.30452 29.2659 3.20602C29.5119 3.14007 29.7632 3.09623 30.0169 3.07502C30.0394 3.07509 30.0618 3.07342 30.0839 3.07002H30.1019C30.1244 3.07011 30.1468 3.06844 30.1689 3.06502H30.4089L30.9739 3.08502C31.0019 3.09802 31.0339 3.08502 31.0619 3.09702H31.1389C31.1659 3.11102 31.1979 3.09702 31.2249 3.10902C31.3205 3.13072 31.418 3.14311 31.5159 3.14602C31.527 3.15052 31.5384 3.1542 31.5499 3.15702C31.8636 3.20689 32.1736 3.27737 32.4779 3.36802C32.8082 3.46605 33.1316 3.58598 33.4459 3.72702C33.4699 3.73802 33.5049 3.77502 33.5179 3.71402L33.6899 2.88502C33.6956 2.87308 33.7003 2.86071 33.7039 2.84802C33.7613 2.58136 33.8189 2.31302 33.8769 2.04302C33.9709 1.60169 34.0663 1.16102 34.1629 0.721023C34.1739 0.669023 34.1629 0.643023 34.1099 0.628023" fill="#727174"/>
</svg>
