<!-- Generated by IcoMoon.io -->
<svg version="1.1" xmlns="http://www.w3.org/2000/svg" width="34" height="32" viewBox="0 0 34 32">
<path d="M30.669 31.449l-7.718-7.718c-2.663 2.008-5.988 2.932-9.305 2.587s-6.38-1.934-8.573-4.447c-2.193-2.513-3.352-5.763-3.245-9.096s1.474-6.502 3.823-8.869c2.35-2.367 5.509-3.755 8.841-3.886s6.591 1.005 9.119 3.18c2.528 2.175 4.139 5.227 4.508 8.541s-0.532 6.646-2.521 9.323l7.718 7.718c0.18 0.174 0.323 0.381 0.422 0.611s0.151 0.477 0.153 0.727c0.002 0.25-0.045 0.498-0.14 0.729s-0.234 0.441-0.411 0.618c-0.177 0.177-0.387 0.317-0.618 0.411s-0.479 0.142-0.729 0.14c-0.25-0.002-0.497-0.054-0.727-0.153s-0.437-0.242-0.611-0.422l0.013 0.006zM5.647 13.177c0 1.861 0.552 3.681 1.586 5.229s2.504 2.754 4.224 3.466c1.72 0.712 3.612 0.899 5.438 0.536s3.503-1.26 4.819-2.576c1.316-1.316 2.213-2.993 2.576-4.819s0.177-3.718-0.536-5.438c-0.712-1.72-1.919-3.19-3.467-4.224s-3.367-1.586-5.229-1.586c-2.495 0.002-4.888 0.995-6.652 2.759s-2.757 4.157-2.759 6.652z"></path>
</svg>
