<svg width="12" height="12" viewBox="0 0 12 12" fill="none" xmlns="http://www.w3.org/2000/svg">
<path d="M5.09993 0.873192C5.18181 0.704121 5.30966 0.561534 5.46884 0.461766C5.62801 0.361997 5.81207 0.309082 5.99993 0.309082C6.18778 0.309082 6.37184 0.361997 6.53101 0.461766C6.69019 0.561534 6.81804 0.704121 6.89993 0.873192L7.86193 2.87319C7.93455 3.02416 8.04395 3.15447 8.18006 3.25214C8.31617 3.34982 8.47465 3.41173 8.64093 3.43219L10.8409 3.70219C11.0307 3.72541 11.2098 3.80252 11.357 3.92438C11.5043 4.04625 11.6135 4.20777 11.6718 4.38981C11.7301 4.57186 11.735 4.76679 11.686 4.95153C11.6369 5.13627 11.5359 5.30308 11.3949 5.43219L9.81193 6.88519C9.68547 7.00097 9.59092 7.14732 9.53733 7.31018C9.48374 7.47304 9.47293 7.64695 9.50593 7.81519L9.91993 9.92619C9.95658 10.1121 9.93964 10.3047 9.87108 10.4814C9.80252 10.658 9.68517 10.8116 9.53269 10.9242C9.38021 11.0367 9.19888 11.1036 9.00984 11.1171C8.82079 11.1305 8.63182 11.09 8.46493 11.0002L6.47393 9.93019C6.32837 9.85194 6.16568 9.81099 6.00043 9.81099C5.83517 9.81099 5.67248 9.85194 5.52693 9.93019L3.53493 11.0002C3.36803 11.09 3.17906 11.1305 2.99002 11.1171C2.80097 11.1036 2.61965 11.0367 2.46717 10.9242C2.31468 10.8116 2.19733 10.658 2.12877 10.4814C2.06021 10.3047 2.04327 10.1121 2.07993 9.92619L2.49393 7.81519C2.52692 7.64695 2.51611 7.47304 2.46252 7.31018C2.40894 7.14732 2.31438 7.00097 2.18793 6.88519L0.599926 5.43119C0.45866 5.30213 0.357387 5.13526 0.308124 4.95036C0.258862 4.76547 0.263679 4.57033 0.322003 4.38809C0.380327 4.20585 0.48971 4.04418 0.63717 3.92224C0.78463 3.80031 0.963977 3.72325 1.15393 3.70019L3.35393 3.43019C3.5202 3.40973 3.67868 3.34782 3.81479 3.25014C3.9509 3.15247 4.0603 3.02216 4.13293 2.87119L5.09993 0.873192Z" fill="#E9E9ED"/>
</svg>
