<svg width="19" height="14" viewBox="0 0 19 14" fill="none" xmlns="http://www.w3.org/2000/svg">
<path d="M0.757812 7.43604C0.691809 7.29999 0.657715 7.15072 0.657715 6.99951C0.657715 6.8483 0.691809 6.69903 0.757812 6.56299C0.888812 6.29499 4.00571 0 9.65771 0C15.3097 0 18.4291 6.29999 18.5581 6.56299C18.6241 6.69903 18.6582 6.8483 18.6582 6.99951C18.6582 7.15072 18.6241 7.29999 18.5581 7.43604C18.4271 7.70504 15.3087 14 9.65771 14C4.00671 14 0.889812 7.70004 0.757812 7.43604ZM2.7959 6.99902C3.5439 8.28902 6.00972 11.999 9.65771 11.999C13.3217 11.999 15.777 8.29102 16.522 6.99902C15.774 5.70902 13.3077 1.99902 9.65771 1.99902C6.00771 1.99902 3.5409 5.70602 2.7959 6.99902ZM6.99609 6.99902C6.99609 6.20337 7.3119 5.44005 7.87451 4.87744C8.43712 4.31483 9.20044 3.99902 9.99609 3.99902C10.7917 3.99902 11.5546 4.31483 12.1172 4.87744C12.6798 5.44005 12.9961 6.20337 12.9961 6.99902C12.9961 7.79467 12.6798 8.55751 12.1172 9.12012C11.5546 9.68273 10.7917 9.99902 9.99609 9.99902C9.20131 9.99796 8.43916 9.68142 7.87744 9.11914C7.31573 8.55686 7.00026 7.79478 7 7L6.99609 6.99902ZM8.99609 6.99902C8.99609 7.26424 9.10104 7.51852 9.28857 7.70605C9.47611 7.89359 9.73088 7.99902 9.99609 7.99902C10.2613 7.99902 10.5156 7.89359 10.7031 7.70605C10.8907 7.51852 10.9961 7.26424 10.9961 6.99902C10.9961 6.73381 10.8907 6.47953 10.7031 6.29199C10.5156 6.10446 10.2613 5.99902 9.99609 5.99902C9.7314 6.00008 9.47772 6.10582 9.29102 6.29346C9.10431 6.48109 8.99973 6.7353 9 7L8.99609 6.99902Z" fill="#727174"/>
</svg>
