<!-- Generated by IcoMoon.io -->
<svg version="1.1" xmlns="http://www.w3.org/2000/svg" width="32" height="32" viewBox="0 0 32 32">
<path d="M26.268 0h-20.693c-1.476 0.021-2.886 0.619-3.927 1.665s-1.633 2.459-1.647 3.935v20.96c0.048 1.45 0.654 2.826 1.693 3.84s2.428 1.587 3.88 1.6h11.145v-11.36h-3.185v-4.8h3.185v-3.040c-0.004-0.776 0.146-1.546 0.441-2.264s0.728-1.371 1.276-1.922c0.548-0.55 1.199-0.987 1.916-1.284s1.486-0.45 2.263-0.45h3.821v4.8h-3.821c-0.332 0.022-0.645 0.164-0.88 0.399s-0.377 0.548-0.4 0.881v3.040h4.139v4.8h-3.979v11.2h4.934c1.476-0.022 2.885-0.62 3.926-1.666s1.632-2.458 1.646-3.934v-20.8c-0.077-1.483-0.709-2.883-1.771-3.921s-2.476-1.637-3.961-1.679z"></path>
</svg>
