<!-- Generated by IcoMoon.io -->
<svg version="1.1" xmlns="http://www.w3.org/2000/svg" width="32" height="32" viewBox="0 0 32 32">
<path d="M8.89 32c-2.357-0.002-4.617-0.94-6.283-2.606s-2.604-3.926-2.606-6.283v-14.221c0.003-2.357 0.94-4.616 2.607-6.283s3.926-2.604 6.283-2.607h14.221c2.357 0.003 4.616 0.94 6.283 2.607s2.604 3.926 2.607 6.283v14.223c-0.003 2.357-0.94 4.616-2.607 6.282s-3.926 2.603-6.283 2.605h-14.221zM7.11 16c-0 1.758 0.521 3.477 1.497 4.939s2.365 2.602 3.989 3.275c1.624 0.673 3.412 0.85 5.136 0.507s3.309-1.189 4.552-2.432c1.244-1.243 2.090-2.827 2.433-4.552s0.167-3.512-0.505-5.136-1.812-3.013-3.274-3.99c-1.462-0.977-3.181-1.498-4.939-1.498-2.356 0.003-4.616 0.94-6.282 2.606s-2.604 3.925-2.608 6.281zM24.89 5.333c0 0.351 0.105 0.695 0.3 0.986s0.473 0.519 0.798 0.654c0.325 0.134 0.682 0.169 1.026 0.101s0.661-0.238 0.909-0.486c0.248-0.248 0.418-0.565 0.486-0.909s0.034-0.702-0.101-1.026c-0.134-0.325-0.362-0.602-0.653-0.798s-0.635-0.3-0.987-0.3c-0.472 0-0.924 0.187-1.258 0.521s-0.521 0.786-0.521 1.258zM10.667 16c0-1.055 0.313-2.086 0.899-2.963s1.419-1.561 2.394-1.964c0.975-0.404 2.047-0.509 3.081-0.303s1.985 0.714 2.731 1.46c0.746 0.746 1.254 1.696 1.46 2.731s0.1 2.107-0.304 3.081c-0.404 0.975-1.087 1.808-1.964 2.394s-1.908 0.899-2.963 0.899c-1.415 0-2.771-0.562-3.771-1.562s-1.562-2.357-1.562-3.771z"></path>
</svg>
