<!-- Generated by IcoMoon.io -->
<svg version="1.1" xmlns="http://www.w3.org/2000/svg" width="33" height="32" viewBox="0 0 33 32">
<path d="M24.702 29.219c-0-0.55 0.161-1.089 0.463-1.547s0.732-0.815 1.234-1.026c0.503-0.211 1.056-0.266 1.59-0.159s1.024 0.372 1.409 0.761 0.647 0.885 0.753 1.425c0.106 0.54 0.052 1.1-0.156 1.608s-0.561 0.944-1.013 1.249c-0.452 0.306-0.984 0.469-1.529 0.469-0.729-0.002-1.427-0.295-1.943-0.816s-0.806-1.228-0.808-1.965zM9.578 29.219c0-0.55 0.161-1.088 0.463-1.545s0.731-0.814 1.234-1.024 1.055-0.266 1.588-0.158c0.533 0.107 1.023 0.372 1.408 0.761s0.646 0.884 0.752 1.424 0.052 1.099-0.156 1.607c-0.208 0.508-0.56 0.943-1.012 1.248s-0.984 0.469-1.527 0.469c-0.729-0-1.428-0.294-1.944-0.815s-0.804-1.229-0.805-1.966zM9.163 20.294l-2.299-11.614c0-0.037-0.016-0.077-0.021-0.116l-1.145-5.784h-4.374c-0.355-0.014-0.692-0.166-0.938-0.425s-0.385-0.605-0.385-0.965c0-0.36 0.138-0.706 0.385-0.965s0.583-0.411 0.938-0.425h5.5c0.32-0.002 0.63 0.108 0.878 0.312s0.418 0.489 0.481 0.806l1.155 5.837h22.249c0.203-0.001 0.404 0.043 0.588 0.13s0.347 0.214 0.477 0.371c0.13 0.158 0.224 0.343 0.275 0.542s0.058 0.407 0.020 0.608l-2.202 11.673c0.001 0.004 0.001 0.008 0 0.012-0.185 0.947-0.689 1.8-1.427 2.413s-1.663 0.947-2.617 0.946h-13.495c-0.954 0-1.878-0.334-2.616-0.946s-1.24-1.464-1.426-2.411zM11.861 19.75c0.062 0.321 0.234 0.609 0.486 0.814s0.566 0.315 0.889 0.309h13.447c0.318-0 0.625-0.111 0.871-0.315s0.414-0.487 0.476-0.802l1.887-10.017h-20.038l1.982 10.011z"></path>
</svg>
