<!-- Generated by IcoMoon.io -->
<svg version="1.1" xmlns="http://www.w3.org/2000/svg" width="40" height="32" viewBox="0 0 40 32">
<path d="M40 3.84c-1.496 0.668-3.086 1.1-4.715 1.28 1.686-1.021 2.954-2.609 3.576-4.48-1.607 0.943-3.368 1.593-5.203 1.92-1.116-1.179-2.558-1.999-4.141-2.358s-3.237-0.239-4.753 0.344-2.824 1.602-3.759 2.929c-0.935 1.327-1.455 2.902-1.494 4.525-0.027 0.644 0.028 1.289 0.163 1.92-3.257-0.143-6.446-0.973-9.36-2.434s-5.486-3.521-7.549-6.045c-0.717 1.271-1.108 2.7-1.139 4.16-0.003 1.328 0.322 2.636 0.946 3.808s1.527 2.172 2.63 2.912c-1.255-0.128-2.472-0.509-3.576-1.12v0.16c0.020 1.897 0.694 3.729 1.909 5.187s2.895 2.451 4.758 2.813c-0.691 0.185-1.4 0.292-2.115 0.32-0.547 0.019-1.094-0.035-1.627-0.16 0.516 1.623 1.534 3.040 2.908 4.046s3.032 1.55 4.735 1.553c-2.908 2.315-6.525 3.558-10.243 3.52-0.655 0.026-1.31-0.027-1.952-0.16 3.768 2.318 8.109 3.537 12.533 3.52 3.056 0.047 6.092-0.513 8.929-1.65s5.421-2.826 7.6-4.969c2.179-2.144 3.909-4.699 5.091-7.518s1.792-5.844 1.793-8.901v-1.12c1.616-1.035 2.997-2.398 4.053-4z"></path>
</svg>
