<!-- Generated by IcoMoon.io -->
<svg version="1.1" xmlns="http://www.w3.org/2000/svg" width="29" height="32" viewBox="0 0 29 32">
<path d="M25.858 30.401v-3.201c0-1.273-0.511-2.494-1.42-3.394s-2.143-1.406-3.429-1.406h-12.928c-1.286 0-2.519 0.506-3.428 1.406s-1.42 2.121-1.42 3.394v3.201c0 0.424-0.17 0.831-0.473 1.131s-0.714 0.469-1.143 0.469c-0.212 0-0.423-0.041-0.619-0.121s-0.374-0.198-0.525-0.347-0.27-0.325-0.351-0.519c-0.081-0.194-0.123-0.402-0.123-0.612v-3.201c0.003-2.121 0.855-4.155 2.37-5.655s3.569-2.343 5.712-2.345h12.928c2.142 0.002 4.197 0.845 5.712 2.345s2.367 3.533 2.37 5.655v3.201c0 0.21-0.042 0.418-0.123 0.612s-0.201 0.371-0.351 0.519-0.328 0.267-0.525 0.347c-0.196 0.080-0.407 0.121-0.619 0.121-0.428 0-0.84-0.169-1.142-0.469s-0.473-0.707-0.473-1.131zM6.464 8c0.003-2.121 0.855-4.155 2.371-5.655s3.57-2.343 5.713-2.345c2.142 0.003 4.196 0.847 5.711 2.347s2.367 3.533 2.369 5.655c-0.002 2.121-0.854 4.155-2.369 5.655s-3.569 2.343-5.711 2.345c-2.142-0.002-4.196-0.845-5.711-2.345s-2.367-3.534-2.369-5.655l-0.004-0.002zM9.695 8c0 1.273 0.511 2.494 1.42 3.394s2.143 1.406 3.428 1.406c1.286 0 2.519-0.506 3.429-1.406s1.42-2.121 1.42-3.394c0-1.273-0.511-2.494-1.42-3.394s-2.143-1.406-3.429-1.406c-1.286 0.001-2.518 0.508-3.427 1.408s-1.419 2.121-1.418 3.394l-0.004-0.002z"></path>
</svg>
