<svg width="27" height="27" viewBox="0 0 27 27" fill="none" xmlns="http://www.w3.org/2000/svg">
<path d="M3.95494 23.046C1.44963 20.5089 0.0497793 17.0837 0.0609798 13.5181C0.0721803 9.95247 1.49352 6.53611 4.01472 4.01478C6.53592 1.49345 9.95221 0.0719268 13.5178 0.0605395C17.0834 0.0491523 20.5087 1.44882 23.0459 3.954C25.5512 6.49112 26.9511 9.91635 26.9399 13.4819C26.9287 17.0475 25.5074 20.4639 22.9862 22.9852C20.465 25.5066 17.0487 26.9281 13.4831 26.9395C9.91749 26.9508 6.49219 25.5512 3.95494 23.046ZM5.36894 5.369C4.28794 6.43393 3.42838 7.70228 2.83982 9.10093C2.25125 10.4996 1.94531 12.0009 1.93963 13.5183C1.93395 15.0358 2.22864 16.5393 2.80671 17.9424C3.38479 19.3454 4.23482 20.6201 5.30782 21.6931C6.38082 22.7661 7.65556 23.6161 9.05859 24.1942C10.4616 24.7723 11.9652 25.067 13.4826 25.0613C15 25.0556 16.5014 24.7497 17.9 24.1611C19.2987 23.5726 20.567 22.713 21.6319 21.632C22.7129 20.5671 23.5725 19.2987 24.1611 17.9001C24.7496 16.5014 25.0556 15.0001 25.0612 13.4827C25.0669 11.9652 24.7722 10.4617 24.1942 9.05865C23.6161 7.65562 22.7661 6.38088 21.6931 5.30788C20.6201 4.23488 19.3453 3.38485 17.9423 2.80677C16.5393 2.2287 15.0357 1.93401 13.5183 1.93969C12.0008 1.94537 10.4995 2.25131 9.10087 2.83988C7.70222 3.42844 6.43387 4.288 5.36894 5.369ZM17.6779 16.811L13.0529 14.5C12.8859 14.4166 12.7456 14.288 12.6479 14.129C12.5502 13.9699 12.4989 13.7867 12.4999 13.6V6.667C12.4999 6.40178 12.6053 6.14743 12.7928 5.95989C12.9804 5.77236 13.2347 5.667 13.4999 5.667C13.7652 5.667 14.0195 5.77236 14.207 5.95989C14.3946 6.14743 14.4999 6.40178 14.4999 6.667V12.986L18.5729 15.023C18.6934 15.0799 18.8012 15.1604 18.8902 15.2595C18.9791 15.3587 19.0473 15.4747 19.0908 15.6006C19.1343 15.7265 19.1522 15.8599 19.1434 15.9928C19.1347 16.1257 19.0994 16.2556 19.0398 16.3747C18.9802 16.4938 18.8974 16.5998 18.7962 16.6865C18.695 16.7732 18.5775 16.8388 18.4507 16.8794C18.3238 16.9201 18.1901 16.9349 18.0574 16.9232C17.9247 16.9114 17.7957 16.8733 17.6779 16.811Z" fill="#B92770"/>
</svg>
