<svg width="24" height="18" viewBox="0 0 24 18" fill="none" xmlns="http://www.w3.org/2000/svg">
<path d="M3.2 18.001C2.38106 18.0281 1.58472 17.7298 0.985082 17.1713C0.385441 16.6129 0.0312723 15.8398 0 15.021L0 2.98003C0.0315299 2.16142 0.385811 1.38857 0.985424 0.830365C1.58504 0.272163 2.38122 -0.0259994 3.2 0.00103405H20.8C21.6188 -0.0259994 22.415 0.272163 23.0146 0.830365C23.6142 1.38857 23.9685 2.16142 24 2.98003V15.021C23.9687 15.8398 23.6146 16.6129 23.0149 17.1713C22.4153 17.7298 21.6189 18.0281 20.8 18.001H3.2ZM2 15.021C2.02748 15.3151 2.16784 15.5871 2.39159 15.7799C2.61534 15.9727 2.90509 16.0713 3.2 16.055H20.8C21.0949 16.0713 21.3847 15.9727 21.6084 15.7799C21.8322 15.5871 21.9725 15.3151 22 15.021V6.83003L12.606 13.796C12.4303 13.925 12.218 13.9946 12 13.9946C11.782 13.9946 11.5697 13.925 11.394 13.796L2 6.83003V15.021ZM12 11.801L22 4.38303V2.98303C21.9723 2.68914 21.8318 2.41739 21.6081 2.2248C21.3844 2.03221 21.0948 1.93374 20.8 1.95003H3.2C2.90572 1.93369 2.61652 2.03175 2.39287 2.22372C2.16922 2.41568 2.02845 2.68668 2 2.98003V4.38003L12 11.801Z" fill="#B92770"/>
</svg>
