<svg width="24" height="24" viewBox="0 0 24 24" fill="none" xmlns="http://www.w3.org/2000/svg">
<path d="M20.788 24C20.688 24 20.595 24 20.499 23.987H20.481C16.925 23.5973 13.5088 22.3846 10.503 20.445C7.71367 18.6698 5.34581 16.3067 3.56499 13.521C1.61429 10.5086 0.397997 7.08027 0.0139873 3.512V3.496C-0.0257022 3.05231 0.0273918 2.60521 0.169892 2.18315C0.312392 1.76109 0.541178 1.37331 0.841695 1.04449C1.14221 0.715657 1.50788 0.452976 1.91544 0.273155C2.323 0.0933345 2.76352 0.000309985 3.20899 0H6.55099C7.32359 0.00287933 8.0695 0.282943 8.65308 0.789263C9.23666 1.29558 9.61915 1.99453 9.73099 2.759V2.768C9.86147 3.75308 10.103 4.72024 10.451 5.651C10.6656 6.22521 10.7115 6.84883 10.5832 7.44826C10.4549 8.0477 10.1578 8.59792 9.72699 9.034L8.87499 9.884C10.2053 11.9884 11.9895 13.7685 14.097 15.094L14.951 14.242C15.388 13.8109 15.9392 13.514 16.5396 13.3862C17.14 13.2584 17.7644 13.3052 18.339 13.521C19.2716 13.8681 20.2404 14.109 21.227 14.239H21.236C22.0135 14.348 22.7241 14.7382 23.2333 15.3358C23.7425 15.9335 24.0149 16.697 23.999 17.482V20.782C24 21.2043 23.9178 21.6227 23.7568 22.0131C23.5959 22.4035 23.3596 22.7584 23.0613 23.0573C22.763 23.3563 22.4087 23.5934 22.0186 23.7552C21.6285 23.9169 21.2103 24.0001 20.788 24ZM20.688 22C20.8553 22.0143 21.0237 21.9936 21.1826 21.9393C21.3415 21.885 21.4874 21.7983 21.6109 21.6846C21.7345 21.5709 21.8331 21.4327 21.9004 21.2789C21.9677 21.1251 22.0023 20.9589 22.002 20.791V17.471C22.002 17.463 22.002 17.4547 22.002 17.446C22.0089 17.1502 21.907 16.8621 21.7157 16.6363C21.5244 16.4105 21.2569 16.2628 20.964 16.221C19.8292 16.0712 18.7148 15.7942 17.642 15.395C17.425 15.313 17.189 15.2949 16.962 15.3427C16.735 15.3906 16.5265 15.5024 16.361 15.665L14.961 17.065C14.8062 17.2195 14.605 17.319 14.3883 17.3483C14.1716 17.3775 13.9512 17.3349 13.761 17.227C10.8364 15.567 8.41398 13.1487 6.74899 10.227C6.64105 10.0368 6.59845 9.81643 6.62771 9.59969C6.65697 9.38295 6.75648 9.18178 6.91099 9.027L8.31099 7.627C8.47242 7.46289 8.5836 7.25607 8.63143 7.03089C8.67926 6.80572 8.66176 6.57156 8.58099 6.356C8.18054 5.28476 7.90244 4.1717 7.75199 3.038C7.70934 2.7498 7.56464 2.4865 7.34423 2.29599C7.12381 2.10549 6.84232 2.00046 6.55099 2H3.20999C3.04265 1.99998 2.87712 2.03467 2.72387 2.10188C2.57062 2.16909 2.43298 2.26735 2.31964 2.39047C2.2063 2.51358 2.11973 2.65886 2.0654 2.81714C2.01107 2.97541 1.99016 3.14323 2.00399 3.31C2.35531 6.56277 3.46469 9.6878 5.24299 12.434V12.441C6.8669 14.9826 9.02704 17.1383 11.572 18.757H11.58C14.3228 20.5309 17.4413 21.6413 20.688 22Z" fill="#B92770"/>
</svg>
