<svg width="63" height="62" viewBox="0 0 63 62" fill="none" xmlns="http://www.w3.org/2000/svg">
<path d="M62.6084 0H0.608398V62H62.6084V0Z" fill="#B92770"/>
<path d="M18.7488 45C17.5844 44.9926 16.4706 44.5239 15.6511 43.6968C14.8317 42.8696 14.3735 41.7513 14.377 40.5869V21.4131C14.3735 20.2487 14.8317 19.1304 15.6511 18.3032C16.4706 17.4761 17.5844 17.0074 18.7488 17H44.0078C45.1722 17.0074 46.2862 17.4761 47.1057 18.3032C47.9252 19.1304 48.3834 20.2487 48.3799 21.4131V40.5869C48.3834 41.7513 47.9252 42.8696 47.1057 43.6968C46.2862 44.5239 45.1722 44.9926 44.0078 45H18.7488ZM16.8069 40.5869C16.8026 41.1067 17.0046 41.607 17.3687 41.978C17.7327 42.349 18.229 42.5604 18.7488 42.5659H44.0078C44.5275 42.5601 45.0237 42.3485 45.3877 41.9775C45.7517 41.6066 45.954 41.1066 45.95 40.5869V23.981L32.0828 34.1362C31.8798 34.2854 31.6347 34.3662 31.3828 34.3672C31.1309 34.3663 30.8859 34.2854 30.6829 34.1362L16.8159 23.981L16.8069 40.5869ZM31.377 31.5801L45.8948 20.9492C45.796 20.5216 45.5562 20.1394 45.2139 19.8647C44.8716 19.5901 44.4467 19.4388 44.0078 19.4351H18.7488C18.3099 19.4387 17.8851 19.5901 17.5427 19.8647C17.2004 20.1394 16.9605 20.5215 16.8618 20.9492L31.377 31.5801Z" fill="white"/>
</svg>
